<svg width="126" height="90" viewBox="0 0 126 90" fill="none" xmlns="http://www.w3.org/2000/svg">
<path d="M51.2804 44.9216H74.7067L62.9934 28.0196L51.2806 44.9216H51.2804ZM43.5783 0H63.9933L111.379 68.3964H90.9642L85.1141 59.9448H40.8735L35.0234 68.3964H14.6084L52.7866 13.2899L43.5785 0L43.5783 0Z" fill="white"/>
<path d="M15.9579 88.7948L10.233 77.8319H5.73335L0 88.7948H3.97952L4.92892 86.7955H10.83L11.8135 88.7948H15.9579ZM9.58495 84.2019H6.17393L7.84533 80.7114H7.91071L9.59916 84.2019H9.58495ZM23.7719 88.7948L29.3432 77.8319H25.3637L21.7907 85.607H21.7253L18.1523 77.8319H13.9908L19.5764 88.7948H23.7719ZM39.2693 88.7948V80.5198H43.5331V77.8319H31.3103V80.5198H35.574V88.7948H39.2693ZM60.0765 83.2883C60.0765 81.3695 59.5677 79.7034 57.9617 78.6955C56.566 77.8319 54.7837 77.6069 52.4557 77.6069C50.1277 77.6069 48.3426 77.8319 46.9526 78.6955C45.3466 79.7034 44.8378 81.3834 44.8378 83.305C44.8378 85.2266 45.3466 86.8899 46.9526 87.8979C48.3426 88.7948 50.1305 89.0086 52.4557 89.0086C54.7809 89.0086 56.5688 88.767 57.9617 87.8979C59.5677 86.8899 60.0765 85.2266 60.0765 83.2883ZM56.3073 83.3855C56.3073 85.607 55.014 86.2651 52.4557 86.2651C49.8974 86.2651 48.6069 85.3821 48.6069 83.2078C48.6069 81.0335 49.8832 80.3449 52.4557 80.3449C55.0282 80.3449 56.3073 81.2251 56.3073 83.3994V83.3855ZM76.2447 88.7948L73.0014 84.8906C73.4102 84.7927 73.8019 84.6364 74.164 84.4268C75.1475 83.8326 75.6108 82.9523 75.6108 81.4945C75.6108 80.2144 75.2015 79.3341 74.3658 78.7399C73.2629 77.9429 71.6086 77.8319 69.4113 77.8319H63.2857V88.7948H66.9809V85.2904H69.0133L71.7819 88.7948H76.2447ZM71.8701 81.5917C71.8701 82.5691 71.3016 82.8246 69.3971 82.8246H66.9866V80.4393H69.3573C70.9633 80.4393 71.8814 80.4893 71.8814 81.5917H71.8701ZM83.3197 88.7948V77.8319H79.6244V88.7948H83.3197ZM94.1639 88.7948V80.5198H98.4276V77.8319H86.2048V80.5198H90.4686V88.7948H94.1639ZM111.728 88.7948V86.0902H105.008V84.5212H110.957V81.8971H105.008V80.5087H111.449V77.8319H101.307V88.7948H111.728ZM121.736 88.7948V80.5198H126V77.8319H113.777V80.5198H118.041V88.7948H121.736Z" fill="#E6E7E8"/>
<path d="M15.9579 88.7948L10.233 77.8319H5.73335L0 88.7948H3.97952L4.92892 86.7955H10.83L11.8135 88.7948H15.9579ZM9.58495 84.2019H6.17393L7.84533 80.7114H7.91071L9.59916 84.2019H9.58495ZM23.7719 88.7948L29.3432 77.8319H25.3637L21.7907 85.607H21.7253L18.1523 77.8319H13.9908L19.5764 88.7948H23.7719ZM39.2693 88.7948V80.5198H43.5331V77.8319H31.3103V80.5198H35.574V88.7948H39.2693ZM60.0765 83.2883C60.0765 81.3695 59.5677 79.7034 57.9617 78.6955C56.566 77.8319 54.7837 77.6069 52.4557 77.6069C50.1277 77.6069 48.3426 77.8319 46.9526 78.6955C45.3466 79.7034 44.8378 81.3834 44.8378 83.305C44.8378 85.2266 45.3466 86.8899 46.9526 87.8979C48.3426 88.7948 50.1305 89.0086 52.4557 89.0086C54.7809 89.0086 56.5688 88.767 57.9617 87.8979C59.5677 86.8899 60.0765 85.2266 60.0765 83.2883ZM56.3073 83.3855C56.3073 85.607 55.014 86.2651 52.4557 86.2651C49.8974 86.2651 48.6069 85.3821 48.6069 83.2078C48.6069 81.0335 49.8832 80.3449 52.4557 80.3449C55.0282 80.3449 56.3073 81.2251 56.3073 83.3994V83.3855ZM76.2447 88.7948L73.0014 84.8906C73.4102 84.7927 73.8019 84.6364 74.164 84.4268C75.1475 83.8326 75.6108 82.9523 75.6108 81.4945C75.6108 80.2144 75.2015 79.3341 74.3658 78.7399C73.2629 77.9429 71.6086 77.8319 69.4113 77.8319H63.2857V88.7948H66.9809V85.2904H69.0133L71.7819 88.7948H76.2447ZM71.8701 81.5917C71.8701 82.5691 71.3016 82.8246 69.3971 82.8246H66.9866V80.4393H69.3573C70.9633 80.4393 71.8814 80.4893 71.8814 81.5917H71.8701ZM83.3197 88.7948V77.8319H79.6244V88.7948H83.3197ZM94.1639 88.7948V80.5198H98.4276V77.8319H86.2048V80.5198H90.4686V88.7948H94.1639ZM111.728 88.7948V86.0902H105.008V84.5212H110.957V81.8971H105.008V80.5087H111.449V77.8319H101.307V88.7948H111.728ZM121.736 88.7948V80.5198H126V77.8319H113.777V80.5198H118.041V88.7948H121.736Z" fill="#E53133"/>
</svg>
