<svg width="62" height="60" viewBox="0 0 62 60" fill="none" xmlns="http://www.w3.org/2000/svg">
<path fill-rule="evenodd" clip-rule="evenodd" d="M13.6278 11.8625C13.4702 12.1469 13.3638 12.3624 13.3237 12.4765C13.213 12.8154 13.1688 12.984 13.133 13.0777C12.938 13.03 12.7217 12.9457 12.5471 13.0019C12.3742 13.0701 12.3436 13.2378 12.1409 13.2906C11.8999 13.3392 11.5456 13.2063 11.3089 13.1731C10.8013 13.0888 10.2734 13.0198 9.7658 12.9023C8.94913 12.7158 8.6647 11.9545 8.71324 11.1906C8.76604 10.4778 9.4933 10.242 10.0681 10.156C10.6429 10.0529 11.4256 9.79658 11.9672 10.1219C12.7549 10.6056 12.4441 12.0797 13.6278 11.8625Z" fill="#E53133"/>
<path fill-rule="evenodd" clip-rule="evenodd" d="M49.1761 29.1557C48.2062 29.1557 47.2779 29.1897 46.3318 29.2068C45.9401 29.2153 45.5569 29.2153 45.1651 29.2153C44.3476 29.2153 42.6274 29.2834 41.8874 29.0109C40.6696 28.6022 40.3537 26.9927 40.0215 25.843C40.1075 25.8175 40.1919 25.8005 40.2855 25.7834C40.4048 25.7664 40.5419 25.7408 40.6781 25.7153C40.7624 25.7068 40.8561 25.6897 40.9498 25.6727C40.9838 25.6727 41.0094 25.6727 41.0434 25.6642C41.1627 25.6472 41.2989 25.6301 41.4267 25.6131H41.4616C41.5885 25.5961 41.7247 25.579 41.861 25.562C42.1931 25.5279 42.5422 25.4939 42.9084 25.4683C43.0115 25.4683 43.1128 25.4598 43.215 25.4513C43.7685 25.4087 44.3399 25.3747 44.9011 25.3576C45.0459 25.3491 45.1915 25.3406 45.3363 25.3321H45.6514C45.7791 25.3236 45.8975 25.3236 46.0252 25.3151H46.3233C47.7804 25.2895 48.9632 25.3491 49.3039 25.4683C50.2151 25.809 50.0541 26.6435 50.3266 27.5292C50.5983 28.7469 50.3947 29.1557 49.1761 29.1557ZM38.659 27.4696C38.2247 28.6873 36.53 28.5255 36.3597 28.5255L24.6248 28.534C24.463 28.534 22.7598 28.7043 22.3255 27.4866C21.875 26.2603 21.2014 24.2932 20.963 23.3138C20.7083 22.2834 19.8729 20.5121 24.8632 20.6228C27.435 20.6739 29.2915 20.6739 30.4837 20.6569C31.6845 20.6739 33.5409 20.6739 36.1127 20.6143C41.0954 20.4951 40.2685 22.2664 40.0139 23.2968C39.7746 24.2761 39.1018 26.2518 38.659 27.4696ZM19.1074 29.0279C18.3571 29.3004 16.6369 29.2408 15.8194 29.2408C15.5213 29.2408 15.2233 29.2408 14.9337 29.2323C14.2184 29.2238 13.5039 29.2068 12.78 29.1983C12.4556 29.1897 12.1414 29.1897 11.8084 29.1897C10.5915 29.1897 10.3862 28.781 10.6596 27.5632C10.9312 26.6776 10.7609 25.843 11.6721 25.5024C12.0051 25.3832 13.1113 25.3321 14.4832 25.3406C14.628 25.3406 14.7813 25.3406 14.9337 25.3491C15.3859 25.3576 15.8619 25.3661 16.3474 25.3917C16.6369 25.4002 16.9264 25.4172 17.216 25.4343C17.3275 25.4343 17.4289 25.4428 17.5311 25.4513C17.6937 25.4598 17.8462 25.4769 17.9994 25.4854C18.1536 25.4939 18.306 25.5109 18.4601 25.5194C18.6134 25.5365 18.7582 25.5535 18.9021 25.562C19.1235 25.579 19.3364 25.6046 19.5408 25.6301C19.6779 25.6472 19.8142 25.6642 19.9325 25.6812C20.0433 25.6983 20.1454 25.7153 20.2485 25.7238C20.2987 25.7323 20.3498 25.7408 20.3924 25.7494C20.4614 25.7579 20.521 25.7749 20.5798 25.7834C20.6053 25.7919 20.6308 25.7919 20.6479 25.7919C20.6905 25.8005 20.7339 25.809 20.7756 25.8175C20.8437 25.8345 20.9034 25.843 20.963 25.8601C20.6223 27.0097 20.3243 28.6192 19.1074 29.0279ZM11.1101 17.6423C11.2634 16.9355 11.4167 17.0377 12.1746 17.0292C13.3412 17.0292 14.4662 17.1399 15.6329 17.3443C17.1649 17.5912 18.9447 17.5401 20.4614 17.9915C18.6977 21.1508 16.757 20.5973 14.5164 20.5973C13.2987 20.5973 11.4167 20.5973 11.1101 19.1241C11.0087 18.7153 11.0087 18.1022 11.1101 17.6423ZM18.0344 5.79683L30.4837 5.36253L42.9084 5.77129C42.9084 5.77129 47.3963 12.7542 47.0565 12.7542C46.7321 12.7542 35.5166 12.1241 30.4752 12.2348C25.4423 12.1326 14.2184 12.7798 13.9033 12.7798C13.5635 12.7798 18.0344 5.79683 18.0344 5.79683ZM48.7844 17.0036C49.5517 17.0036 49.7041 16.9014 49.8574 17.6083C49.9596 18.0681 49.9596 18.6812 49.8574 19.09C49.5517 20.5632 47.6782 20.5632 46.451 20.5632C44.2114 20.5718 42.2697 21.1253 40.5078 17.9744C42.0236 17.5231 43.8111 17.5657 45.3363 17.3187C46.4945 17.1058 47.6177 17.0036 48.7844 17.0036ZM52.1141 17.5316C52.0715 16.8163 50.4109 15.2834 49.934 14.8151C49.6198 14.5085 48.5119 13.5632 48.1457 13.3248C47.9251 13.1886 47.8817 13.1885 47.8221 13.0523C47.788 12.9501 47.7463 12.7798 47.6356 12.4477C47.5922 12.3285 47.4908 12.1156 47.3282 11.8345C46.3744 10.1058 43.5905 5.80535 43.3598 5.56691C43.0787 5.2944 42.4741 4.74939 41.6063 4.59611C40.7462 4.45134 32.1018 4 30.4752 4C28.8402 4 20.1965 4.46837 19.3364 4.62165C18.4687 4.77494 17.8632 5.31143 17.5907 5.58394C17.3607 5.82238 14.576 10.1314 13.6316 11.8601C13.4698 12.1496 13.3668 12.3625 13.3242 12.4732C13.2144 12.8139 13.1709 12.9842 13.1377 13.0778C13.0943 13.1715 12.8729 13.3248 12.7886 13.3674C12.7707 13.3844 12.763 13.3929 12.763 13.3929C12.5237 13.5547 11.5538 14.2104 11.0334 14.764C10.2423 15.5985 8.88828 16.8503 8.85337 17.5657C8.82016 18.281 8.51273 18.7834 8.58938 20.2141C8.61492 20.9039 8.81164 22.9988 8.99899 24.9915C9.18549 27.0863 9.39072 29.0705 9.4069 29.2238C9.44096 29.5304 9.33877 29.871 9.47503 30.135C9.61128 30.4075 9.95277 30.4841 10.4893 30.4756C10.6596 30.4756 12.4556 30.5012 14.9337 30.5352C20.8267 30.6034 30.4923 30.7311 30.4923 30.7311C30.4923 30.7311 40.4652 30.5863 46.3318 30.5012C48.6567 30.4671 50.3428 30.4416 50.4961 30.4416C51.0334 30.4416 51.3732 30.3734 51.518 30.1009C51.6457 29.8369 51.5444 29.4963 51.5785 29.1897C51.604 28.9768 51.9532 25.3917 52.1831 22.7518C52.2844 21.5851 52.3619 20.6058 52.3875 20.1715C52.4556 18.7494 52.149 18.2384 52.1141 17.5316Z" fill="#E53133"/>
<path fill-rule="evenodd" clip-rule="evenodd" d="M14.9339 31.3868V33.7286C14.9339 33.95 14.7551 34.1374 14.5345 34.1374L9.4156 34.1459C9.18567 34.1459 9.00684 33.9585 9.00684 33.7371V30.9014C9.45051 31.3101 10.0977 31.3272 10.4554 31.3272C10.4631 31.3272 14.9262 31.3868 14.9262 31.3868H14.9339Z" fill="#E53133"/>
<path fill-rule="evenodd" clip-rule="evenodd" d="M52.2676 30.5012V33.6946C52.2676 33.9246 52.0888 34.1034 51.8588 34.1034L46.7408 34.1119C46.5194 34.1119 46.332 33.9246 46.332 33.7032V31.3528C48.7505 31.3187 50.4631 31.2932 50.4963 31.2932C50.8974 31.2932 51.8256 31.2932 52.2676 30.5012Z" fill="#E53133"/>
<path fill-rule="evenodd" clip-rule="evenodd" d="M14.4726 27.294C14.4726 28.1507 13.7794 28.8447 12.9227 28.8464C12.0677 28.8464 11.3719 28.1533 11.3711 27.2957C11.3711 26.439 12.0643 25.7433 12.9227 25.7441C13.776 25.7433 14.4709 26.4373 14.4726 27.294Z" fill="#E53133"/>
<path fill-rule="evenodd" clip-rule="evenodd" d="M51.1943 12.8666C50.6876 12.985 50.1563 13.054 49.6487 13.14C49.412 13.1732 49.0594 13.3078 48.8184 13.2592C48.6149 13.2064 48.5834 13.0395 48.4122 12.9705C48.2359 12.9135 48.0213 12.9995 47.8263 13.0489C47.7897 12.9544 47.7446 12.784 47.6338 12.446C47.5938 12.3319 47.4891 12.1173 47.3281 11.832C48.5118 12.0457 48.1976 10.575 48.9879 10.0896C49.5261 9.76349 50.3087 10.0198 50.8869 10.1212C51.4609 10.2055 52.189 10.4413 52.2409 11.1533C52.2912 11.9163 52.0076 12.6767 51.1943 12.8666Z" fill="#E53133"/>
<path fill-rule="evenodd" clip-rule="evenodd" d="M17.1414 27.2925C17.1422 27.9022 16.6483 28.3987 16.036 28.3987C15.4271 28.3987 14.9298 27.9048 14.9307 27.2933C14.929 26.681 15.4246 26.1863 16.036 26.1863C16.6466 26.1854 17.1422 26.6802 17.1414 27.2925Z" fill="#E53133"/>
<path fill-rule="evenodd" clip-rule="evenodd" d="M49.5097 27.2634C49.5131 28.1184 48.8191 28.815 47.9598 28.815C47.1065 28.8167 46.4091 28.1218 46.4082 27.2642C46.4057 26.4101 47.1031 25.7143 47.9581 25.7126C48.8157 25.7135 49.5114 26.4058 49.5097 27.2634Z" fill="#E53133"/>
<path fill-rule="evenodd" clip-rule="evenodd" d="M45.7976 27.2661C45.7985 27.8784 45.3029 28.3723 44.6931 28.374C44.0842 28.3732 43.5869 27.8793 43.5869 27.2687C43.5878 26.6572 44.0808 26.1608 44.6914 26.1616C45.3029 26.1608 45.7976 26.6547 45.7976 27.2661Z" fill="#E53133"/>
<path fill-rule="evenodd" clip-rule="evenodd" d="M0 56.1934H11.2154V52.1484H0V56.1934Z" fill="#E53133"/>
<path fill-rule="evenodd" clip-rule="evenodd" d="M3.79785 51.2969V17.0208H7.41711V34.9635H16.2992V36.3772H7.41711V51.2969H3.79785Z" fill="#E53133"/>
<path fill-rule="evenodd" clip-rule="evenodd" d="M50.0205 56.2198H61.2351V52.1748H50.0205V56.2198Z" fill="#E53133"/>
<path fill-rule="evenodd" clip-rule="evenodd" d="M53.8186 51.3232V36.4035H44.9365V34.9899H53.8186V17.0471H57.4379V51.3232H53.8186Z" fill="#E53133"/>
</svg>
