<svg width="60" height="60" viewBox="0 0 60 60" fill="none" xmlns="http://www.w3.org/2000/svg">
<path fill-rule="evenodd" clip-rule="evenodd" d="M21.744 26.5307C21.744 26.7776 21.5482 26.9735 21.3012 26.9735C21.0628 26.9735 20.8584 26.7776 20.8584 26.5307C20.8584 26.2829 21.0628 26.0793 21.3012 26.0793C21.5482 26.0793 21.744 26.2829 21.744 26.5307Z" fill="#E53133"/>
<path fill-rule="evenodd" clip-rule="evenodd" d="M36.6296 30.9844C35.9151 30.9844 35.3352 31.5635 35.3352 32.2789C35.3352 32.9933 35.9151 33.5733 36.6296 33.5733C37.3449 33.5733 37.924 32.9933 37.924 32.2789C37.924 31.5635 37.3449 30.9844 36.6296 30.9844ZM33.1475 38.8702C30.7878 37.6183 29.1783 35.1317 29.1783 32.2789C29.1783 29.8944 30.3024 27.7654 32.0566 26.4029L26.1978 25.1161C26.3349 25.5683 26.403 26.0359 26.403 26.5306C26.403 29.34 24.1199 31.6317 21.3012 31.6317C21.0202 31.6317 20.7391 31.6053 20.476 31.5635L22.1357 37.0903C22.8681 36.5283 23.7801 36.1868 24.7756 36.1868C27.16 36.1868 29.0931 38.1293 29.0931 40.5129V40.5222L33.1475 38.8702ZM24.7756 40.2923C24.6479 40.2923 24.5542 40.386 24.5542 40.5129C24.5542 40.6329 24.6564 40.7351 24.7756 40.7351C24.8948 40.7351 24.9885 40.6329 24.9885 40.5129C24.9885 40.386 24.8948 40.2923 24.7756 40.2923ZM36.6296 30.9844C35.9151 30.9844 35.3352 31.5635 35.3352 32.2789C35.3352 32.9933 35.9151 33.5733 36.6296 33.5733C37.3449 33.5733 37.924 32.9933 37.924 32.2789C37.924 31.5635 37.3449 30.9844 36.6296 30.9844ZM36.6296 30.9844C35.9151 30.9844 35.3352 31.5635 35.3352 32.2789C35.3352 32.9933 35.9151 33.5733 36.6296 33.5733C37.3449 33.5733 37.924 32.9933 37.924 32.2789C37.924 31.5635 37.3449 30.9844 36.6296 30.9844ZM33.1475 38.8702C30.7878 37.6183 29.1783 35.1317 29.1783 32.2789C29.1783 29.8944 30.3024 27.7654 32.0566 26.4029L26.1978 25.1161C26.3349 25.5683 26.403 26.0359 26.403 26.5306C26.403 29.34 24.1199 31.6317 21.3012 31.6317C21.0202 31.6317 20.7391 31.6053 20.476 31.5635L22.1357 37.0903C22.8681 36.5283 23.7801 36.1868 24.7756 36.1868C27.16 36.1868 29.0931 38.1293 29.0931 40.5129V40.5222L33.1475 38.8702ZM36.6296 30.9844C35.9151 30.9844 35.3352 31.5635 35.3352 32.2789C35.3352 32.9933 35.9151 33.5733 36.6296 33.5733C37.3449 33.5733 37.924 32.9933 37.924 32.2789C37.924 31.5635 37.3449 30.9844 36.6296 30.9844ZM36.6296 30.9844C35.9151 30.9844 35.3352 31.5635 35.3352 32.2789C35.3352 32.9933 35.9151 33.5733 36.6296 33.5733C37.3449 33.5733 37.924 32.9933 37.924 32.2789C37.924 31.5635 37.3449 30.9844 36.6296 30.9844ZM33.1475 38.8702C30.7878 37.6183 29.1783 35.1317 29.1783 32.2789C29.1783 29.8944 30.3024 27.7654 32.0566 26.4029L26.1978 25.1161C26.3349 25.5683 26.403 26.0359 26.403 26.5306C26.403 29.34 24.1199 31.6317 21.3012 31.6317C21.0202 31.6317 20.7391 31.6053 20.476 31.5635L22.1357 37.0903C22.8681 36.5283 23.7801 36.1868 24.7756 36.1868C27.16 36.1868 29.0931 38.1293 29.0931 40.5129V40.5222L33.1475 38.8702ZM24.7756 40.2923C24.6479 40.2923 24.5542 40.386 24.5542 40.5129C24.5542 40.6329 24.6564 40.7351 24.7756 40.7351C24.8948 40.7351 24.9885 40.6329 24.9885 40.5129C24.9885 40.386 24.8948 40.2923 24.7756 40.2923ZM33.1475 38.8702C30.7878 37.6183 29.1783 35.1317 29.1783 32.2789C29.1783 29.8944 30.3024 27.7654 32.0566 26.4029L26.1978 25.1161C26.3349 25.5683 26.403 26.0359 26.403 26.5306C26.403 29.34 24.1199 31.6317 21.3012 31.6317C21.0202 31.6317 20.7391 31.6053 20.476 31.5635L22.1357 37.0903C22.8681 36.5283 23.7801 36.1868 24.7756 36.1868C27.16 36.1868 29.0931 38.1293 29.0931 40.5129V40.5222L33.1475 38.8702ZM36.6296 30.9844C35.9151 30.9844 35.3352 31.5635 35.3352 32.2789C35.3352 32.9933 35.9151 33.5733 36.6296 33.5733C37.3449 33.5733 37.924 32.9933 37.924 32.2789C37.924 31.5635 37.3449 30.9844 36.6296 30.9844ZM36.6296 30.9844C35.9151 30.9844 35.3352 31.5635 35.3352 32.2789C35.3352 32.9933 35.9151 33.5733 36.6296 33.5733C37.3449 33.5733 37.924 32.9933 37.924 32.2789C37.924 31.5635 37.3449 30.9844 36.6296 30.9844ZM33.1475 38.8702C30.7878 37.6183 29.1783 35.1317 29.1783 32.2789C29.1783 29.8944 30.3024 27.7654 32.0566 26.4029L26.1978 25.1161C26.3349 25.5683 26.403 26.0359 26.403 26.5306C26.403 29.34 24.1199 31.6317 21.3012 31.6317C21.0202 31.6317 20.7391 31.6053 20.476 31.5635L22.1357 37.0903C22.8681 36.5283 23.7801 36.1868 24.7756 36.1868C27.16 36.1868 29.0931 38.1293 29.0931 40.5129V40.5222L33.1475 38.8702ZM24.7756 40.2923C24.6479 40.2923 24.5542 40.386 24.5542 40.5129C24.5542 40.6329 24.6564 40.7351 24.7756 40.7351C24.8948 40.7351 24.9885 40.6329 24.9885 40.5129C24.9885 40.386 24.8948 40.2923 24.7756 40.2923ZM24.7756 40.2923C24.6479 40.2923 24.5542 40.386 24.5542 40.5129C24.5542 40.6329 24.6564 40.7351 24.7756 40.7351C24.8948 40.7351 24.9885 40.6329 24.9885 40.5129C24.9885 40.386 24.8948 40.2923 24.7756 40.2923ZM33.1475 38.8702C30.7878 37.6183 29.1783 35.1317 29.1783 32.2789C29.1783 29.8944 30.3024 27.7654 32.0566 26.4029L26.1978 25.1161C26.3349 25.5683 26.403 26.0359 26.403 26.5306C26.403 29.34 24.1199 31.6317 21.3012 31.6317C21.0202 31.6317 20.7391 31.6053 20.476 31.5635L22.1357 37.0903C22.8681 36.5283 23.7801 36.1868 24.7756 36.1868C27.16 36.1868 29.0931 38.1293 29.0931 40.5129V40.5222L33.1475 38.8702ZM36.6296 30.9844C35.9151 30.9844 35.3352 31.5635 35.3352 32.2789C35.3352 32.9933 35.9151 33.5733 36.6296 33.5733C37.3449 33.5733 37.924 32.9933 37.924 32.2789C37.924 31.5635 37.3449 30.9844 36.6296 30.9844ZM24.5542 40.5129C24.5542 40.6329 24.6564 40.7351 24.7756 40.7351C24.8948 40.7351 24.9885 40.6329 24.9885 40.5129C24.9885 40.386 24.8948 40.2923 24.7756 40.2923C24.6479 40.2923 24.5542 40.386 24.5542 40.5129ZM21.3012 31.6317C21.0202 31.6317 20.7391 31.6053 20.476 31.5635L22.1357 37.0903C22.8681 36.5283 23.7801 36.1868 24.7756 36.1868C27.16 36.1868 29.0931 38.1293 29.0931 40.5129V40.5222L33.1475 38.8702C30.7878 37.6183 29.1783 35.1317 29.1783 32.2789C29.1783 29.8944 30.3024 27.7654 32.0566 26.4029L26.1978 25.1161C26.3349 25.5683 26.403 26.0359 26.403 26.5306C26.403 29.34 24.1199 31.6317 21.3012 31.6317ZM37.924 32.2789C37.924 31.5635 37.3449 30.9844 36.6296 30.9844C35.9151 30.9844 35.3352 31.5635 35.3352 32.2789C35.3352 32.9933 35.9151 33.5733 36.6296 33.5733C37.3449 33.5733 37.924 32.9933 37.924 32.2789ZM35.8717 17.8955L35.1658 17.4178L35.233 17.325H25.3291L25.3973 17.4178L24.5031 18.0318L18.9176 21.898L18.9764 21.9831C19.6747 21.6255 20.4581 21.4211 21.3012 21.4211C22.0846 21.4211 22.834 21.5991 23.4897 21.915L36.8689 24.8351C40.8705 24.9552 44.0809 28.2415 44.0809 32.2789C44.0809 35.4297 42.1232 38.1293 39.3555 39.2278L39.1929 39.2874L36.025 40.4711L27.3133 44.0052C26.6065 44.5332 25.7209 44.8398 24.7756 44.8398C22.392 44.8398 20.4496 42.8982 20.4496 40.5129C20.4496 40.4626 20.4496 40.4201 20.4581 40.369L17.2144 29.5793C16.5664 28.7277 16.1917 27.6709 16.1917 26.5306C16.1917 25.1085 16.7708 23.8226 17.716 22.9029L17.6402 22.7922L11.8486 26.8031L21.7951 52.2401H38.7671L48.7135 26.8117V26.8031L35.8717 17.8955ZM36.6296 30.9844C35.9151 30.9844 35.3352 31.5635 35.3352 32.2789C35.3352 32.9933 35.9151 33.5733 36.6296 33.5733C37.3449 33.5733 37.924 32.9933 37.924 32.2789C37.924 31.5635 37.3449 30.9844 36.6296 30.9844ZM33.1475 38.8702C30.7878 37.6183 29.1783 35.1317 29.1783 32.2789C29.1783 29.8944 30.3024 27.7654 32.0566 26.4029L26.1978 25.1161C26.3349 25.5683 26.403 26.0359 26.403 26.5306C26.403 29.34 24.1199 31.6317 21.3012 31.6317C21.0202 31.6317 20.7391 31.6053 20.476 31.5635L22.1357 37.0903C22.8681 36.5283 23.7801 36.1868 24.7756 36.1868C27.16 36.1868 29.0931 38.1293 29.0931 40.5129V40.5222L33.1475 38.8702ZM24.7756 40.2923C24.6479 40.2923 24.5542 40.386 24.5542 40.5129C24.5542 40.6329 24.6564 40.7351 24.7756 40.7351C24.8948 40.7351 24.9885 40.6329 24.9885 40.5129C24.9885 40.386 24.8948 40.2923 24.7756 40.2923ZM24.7756 40.2923C24.6479 40.2923 24.5542 40.386 24.5542 40.5129C24.5542 40.6329 24.6564 40.7351 24.7756 40.7351C24.8948 40.7351 24.9885 40.6329 24.9885 40.5129C24.9885 40.386 24.8948 40.2923 24.7756 40.2923ZM33.1475 38.8702C30.7878 37.6183 29.1783 35.1317 29.1783 32.2789C29.1783 29.8944 30.3024 27.7654 32.0566 26.4029L26.1978 25.1161C26.3349 25.5683 26.403 26.0359 26.403 26.5306C26.403 29.34 24.1199 31.6317 21.3012 31.6317C21.0202 31.6317 20.7391 31.6053 20.476 31.5635L22.1357 37.0903C22.8681 36.5283 23.7801 36.1868 24.7756 36.1868C27.16 36.1868 29.0931 38.1293 29.0931 40.5129V40.5222L33.1475 38.8702ZM36.6296 30.9844C35.9151 30.9844 35.3352 31.5635 35.3352 32.2789C35.3352 32.9933 35.9151 33.5733 36.6296 33.5733C37.3449 33.5733 37.924 32.9933 37.924 32.2789C37.924 31.5635 37.3449 30.9844 36.6296 30.9844ZM36.6296 30.9844C35.9151 30.9844 35.3352 31.5635 35.3352 32.2789C35.3352 32.9933 35.9151 33.5733 36.6296 33.5733C37.3449 33.5733 37.924 32.9933 37.924 32.2789C37.924 31.5635 37.3449 30.9844 36.6296 30.9844ZM33.1475 38.8702C30.7878 37.6183 29.1783 35.1317 29.1783 32.2789C29.1783 29.8944 30.3024 27.7654 32.0566 26.4029L26.1978 25.1161C26.3349 25.5683 26.403 26.0359 26.403 26.5306C26.403 29.34 24.1199 31.6317 21.3012 31.6317C21.0202 31.6317 20.7391 31.6053 20.476 31.5635L22.1357 37.0903C22.8681 36.5283 23.7801 36.1868 24.7756 36.1868C27.16 36.1868 29.0931 38.1293 29.0931 40.5129V40.5222L33.1475 38.8702ZM24.7756 40.2923C24.6479 40.2923 24.5542 40.386 24.5542 40.5129C24.5542 40.6329 24.6564 40.7351 24.7756 40.7351C24.8948 40.7351 24.9885 40.6329 24.9885 40.5129C24.9885 40.386 24.8948 40.2923 24.7756 40.2923ZM24.7756 40.2923C24.6479 40.2923 24.5542 40.386 24.5542 40.5129C24.5542 40.6329 24.6564 40.7351 24.7756 40.7351C24.8948 40.7351 24.9885 40.6329 24.9885 40.5129C24.9885 40.386 24.8948 40.2923 24.7756 40.2923ZM33.1475 38.8702C30.7878 37.6183 29.1783 35.1317 29.1783 32.2789C29.1783 29.8944 30.3024 27.7654 32.0566 26.4029L26.1978 25.1161C26.3349 25.5683 26.403 26.0359 26.403 26.5306C26.403 29.34 24.1199 31.6317 21.3012 31.6317C21.0202 31.6317 20.7391 31.6053 20.476 31.5635L22.1357 37.0903C22.8681 36.5283 23.7801 36.1868 24.7756 36.1868C27.16 36.1868 29.0931 38.1293 29.0931 40.5129V40.5222L33.1475 38.8702ZM36.6296 30.9844C35.9151 30.9844 35.3352 31.5635 35.3352 32.2789C35.3352 32.9933 35.9151 33.5733 36.6296 33.5733C37.3449 33.5733 37.924 32.9933 37.924 32.2789C37.924 31.5635 37.3449 30.9844 36.6296 30.9844ZM36.6296 30.9844C35.9151 30.9844 35.3352 31.5635 35.3352 32.2789C35.3352 32.9933 35.9151 33.5733 36.6296 33.5733C37.3449 33.5733 37.924 32.9933 37.924 32.2789C37.924 31.5635 37.3449 30.9844 36.6296 30.9844ZM24.7756 40.2923C24.6479 40.2923 24.5542 40.386 24.5542 40.5129C24.5542 40.6329 24.6564 40.7351 24.7756 40.7351C24.8948 40.7351 24.9885 40.6329 24.9885 40.5129C24.9885 40.386 24.8948 40.2923 24.7756 40.2923ZM33.1475 38.8702C30.7878 37.6183 29.1783 35.1317 29.1783 32.2789C29.1783 29.8944 30.3024 27.7654 32.0566 26.4029L26.1978 25.1161C26.3349 25.5683 26.403 26.0359 26.403 26.5306C26.403 29.34 24.1199 31.6317 21.3012 31.6317C21.0202 31.6317 20.7391 31.6053 20.476 31.5635L22.1357 37.0903C22.8681 36.5283 23.7801 36.1868 24.7756 36.1868C27.16 36.1868 29.0931 38.1293 29.0931 40.5129V40.5222L33.1475 38.8702ZM36.6296 30.9844C35.9151 30.9844 35.3352 31.5635 35.3352 32.2789C35.3352 32.9933 35.9151 33.5733 36.6296 33.5733C37.3449 33.5733 37.924 32.9933 37.924 32.2789C37.924 31.5635 37.3449 30.9844 36.6296 30.9844ZM36.6296 30.9844C35.9151 30.9844 35.3352 31.5635 35.3352 32.2789C35.3352 32.9933 35.9151 33.5733 36.6296 33.5733C37.3449 33.5733 37.924 32.9933 37.924 32.2789C37.924 31.5635 37.3449 30.9844 36.6296 30.9844Z" fill="#E53133"/>
<path fill-rule="evenodd" clip-rule="evenodd" d="M35.7028 39.6792L28.5742 42.5737C28.7531 42.2424 28.8902 41.8848 28.9745 41.5016V41.493L34.2543 39.3462C34.7141 39.5088 35.1995 39.6196 35.7028 39.6792Z" fill="#E53133"/>
<path fill-rule="evenodd" clip-rule="evenodd" d="M34.3984 25.1681C33.9301 25.3129 33.4872 25.5079 33.0615 25.7472H33.0529L25.823 24.1633C25.6272 23.7886 25.3887 23.4471 25.1162 23.1414L34.3984 25.1681Z" fill="#E53133"/>
<path fill-rule="evenodd" clip-rule="evenodd" d="M21.4462 37.7545C21.2078 38.044 21.0034 38.3676 20.8501 38.7074L18.458 30.7629C18.7808 30.9844 19.1308 31.1717 19.5046 31.2994L21.4462 37.7545Z" fill="#E53133"/>
<path fill-rule="evenodd" clip-rule="evenodd" d="M36.632 34.4248C35.4491 34.4248 34.486 33.4625 34.486 32.2788C34.486 31.0951 35.4491 30.1328 36.632 30.1328C37.8157 30.1328 38.778 31.0951 38.778 32.2788C38.778 33.4625 37.8157 34.4248 36.632 34.4248ZM36.632 25.679C32.9872 25.679 30.0322 28.634 30.0322 32.2788C30.0322 35.9236 32.9872 38.8863 36.632 38.8863C40.2776 38.8863 43.2317 35.9236 43.2317 32.2788C43.2317 28.634 40.2776 25.679 36.632 25.679Z" fill="#E53133"/>
<path fill-rule="evenodd" clip-rule="evenodd" d="M21.3038 27.8251C20.5893 27.8251 20.0094 27.2451 20.0094 26.5307C20.0094 25.8153 20.5893 25.2277 21.3038 25.2277C22.0191 25.2277 22.5982 25.8153 22.5982 26.5307C22.5982 27.2451 22.0191 27.8251 21.3038 27.8251ZM21.3038 22.2727C18.9543 22.2727 17.0459 24.1803 17.0459 26.5307C17.0459 28.8802 18.9543 30.7801 21.3038 30.7801C23.6542 30.7801 25.554 28.8802 25.554 26.5307C25.554 24.1803 23.6542 22.2727 21.3038 22.2727Z" fill="#E53133"/>
<path fill-rule="evenodd" clip-rule="evenodd" d="M24.7782 41.5867C24.1821 41.5867 23.706 41.1013 23.706 40.5128C23.706 39.9176 24.1821 39.4407 24.7782 39.4407C25.3657 39.4407 25.8426 39.9176 25.8426 40.5128C25.8426 41.1013 25.3657 41.5867 24.7782 41.5867ZM24.7782 37.0383C22.8544 37.0383 21.3037 38.5967 21.3037 40.5128C21.3037 42.4289 22.8544 43.9882 24.7782 43.9882C26.6942 43.9882 28.2441 42.4289 28.2441 40.5128C28.2441 38.5967 26.6942 37.0383 24.7782 37.0383Z" fill="#E53133"/>
<path fill-rule="evenodd" clip-rule="evenodd" d="M40.1554 13.6035H40.812V8.57056H40.1554V13.6035ZM38.9547 13.6035H39.6104V8.57056H38.9547V13.6035ZM37.7625 13.6035H38.4182V8.57056H37.7625V13.6035ZM36.5618 13.6035H37.2175V8.57056H36.5618V13.6035ZM35.361 13.6035H36.0176V8.57056H35.361V13.6035ZM34.1603 13.6035H34.8245V8.57056H34.1603V13.6035ZM32.9689 13.6035H33.6238V8.57056H32.9689V13.6035ZM31.7674 13.6035H32.4231V8.57056H31.7674V13.6035ZM30.5666 13.6035H31.2224V8.57056H30.5666V13.6035ZM29.3659 13.6035H30.0301V8.57056H29.3659V13.6035ZM28.1737 13.6035H28.8294V8.57056H28.1737V13.6035ZM26.9738 13.6035H27.6287V8.57056H26.9738V13.6035ZM25.7722 13.6035H26.428V8.57056H25.7722V13.6035ZM24.58 13.6035H25.2366V8.57056H24.58V13.6035ZM23.3793 13.6035H24.035V8.57056H23.3793V13.6035ZM22.1794 13.6035H22.8343V8.57056H22.1794V13.6035ZM20.9787 13.6035H21.6421V8.57056H20.9787V13.6035ZM19.7856 13.6035H20.4422V8.57056H19.7856V13.6035ZM19.2832 14.1059H41.2795V8H19.2832V14.1059Z" fill="#E53133"/>
<path fill-rule="evenodd" clip-rule="evenodd" d="M24.6299 16.4102H35.9346V14.7769H24.6299V16.4102Z" fill="#E53133"/>
<path fill-rule="evenodd" clip-rule="evenodd" d="M24.2137 17.1971L24.0272 17.3248L6.40718 29.5528L5.77701 29.9879L3.60548 26.8371C2.53249 25.2786 2.92421 23.1582 4.47494 22.0937L17.3415 13.2278C17.6821 12.9902 18.0568 12.8284 18.4315 12.7339V14.9574H22.6724L24.2137 17.1971Z" fill="#E53133"/>
<path fill-rule="evenodd" clip-rule="evenodd" d="M14.7438 36.5366H11.0402C10.0345 36.5366 9.65983 35.4211 9.65983 35.4211L6.81641 30.2936L11.1246 27.3054L14.7438 36.5366Z" fill="#E53133"/>
<path fill-rule="evenodd" clip-rule="evenodd" d="M56.9577 26.8371L54.7853 29.9879L54.1552 29.5528L49.0287 25.994L36.536 17.3248L36.3486 17.1971L37.89 14.9574H42.1309V12.7339C42.5056 12.8284 42.8803 12.9902 43.2217 13.2278L56.0883 22.0937C57.6381 23.1582 58.0299 25.2786 56.9577 26.8371Z" fill="#E53133"/>
<path fill-rule="evenodd" clip-rule="evenodd" d="M53.7381 30.3032L50.9023 35.4212C50.9023 35.4212 50.5276 36.5368 49.5227 36.5368H45.8184L49.4299 27.3132L53.7381 30.3032Z" fill="#E53133"/>
</svg>
