<svg width="60" height="60" viewBox="0 0 60 60" fill="none" xmlns="http://www.w3.org/2000/svg">
<path fill-rule="evenodd" clip-rule="evenodd" d="M23.0788 20.7462C23.5216 20.7462 23.9738 20.9157 24.3059 21.2572L29.6283 26.5796L31.127 25.0808L24.2207 18.1745C25.7365 15.1258 25.5662 11.3703 23.4799 8.38981C21.4352 5.48592 18.0885 4.05527 14.7929 4.3448L19.1964 10.6201C19.8002 11.4896 19.5873 12.6733 18.7272 13.2779L13.9677 16.6246C13.0991 17.2284 11.9145 17.0248 11.3108 16.1554L6.89873 9.87156C5.51151 12.8862 5.71589 16.5216 7.75031 19.4254C10.1697 22.8667 14.4276 24.2377 18.2673 23.1392L25.6684 30.5394L27.1749 29.0406L21.8525 23.7183C21.1721 23.0361 21.1721 21.9385 21.8525 21.2572C22.1854 20.9157 22.6359 20.7462 23.0788 20.7462ZM53.1821 40.6383C50.8232 37.2073 46.6428 35.7851 42.8363 36.79L35.7341 29.6878L34.2345 31.1866L39.0042 35.9546C39.6846 36.6367 39.6846 37.7344 39.0042 38.4165C38.6635 38.7572 38.2207 38.9275 37.7685 38.9275C37.3257 38.9275 36.8837 38.7572 36.5422 38.4165L31.7742 33.6392L30.2755 35.1465L36.7637 41.6347C35.172 44.6833 35.2734 48.4822 37.3521 51.5138C39.3618 54.4433 42.7 55.8986 46.0041 55.6525L41.6602 49.3253C41.065 48.4558 41.2864 47.2815 42.1542 46.676L46.9494 43.3812C47.818 42.7851 49.0017 43.0065 49.6055 43.8666L53.94 50.1939C55.3622 47.2048 55.1927 43.5592 53.1821 40.6383Z" fill="#E53133"/>
<path fill-rule="evenodd" clip-rule="evenodd" d="M28.5972 38.7572C28.2744 39.0799 27.749 39.0799 27.4262 38.7572L22.0562 33.3871C21.7326 33.0635 21.7326 32.5398 22.0562 32.2162L22.344 31.9283C22.6659 31.6056 23.1913 31.6056 23.5149 31.9283L28.885 37.2993C29.2077 37.622 29.2077 38.1474 28.885 38.4702L28.5972 38.7572Z" fill="#E53133"/>
<path fill-rule="evenodd" clip-rule="evenodd" d="M26.2137 39.9495L14.4781 52.7487L13.0313 54.3242C12.5799 54.7755 12.0681 55.1153 11.5061 55.3367C11.0803 55.5164 10.646 55.6177 10.204 55.6526C10.0593 55.6697 9.91449 55.6782 9.7612 55.6782C8.57751 55.6858 7.39296 55.2354 6.49028 54.3318C4.67642 52.5188 4.67642 49.5885 6.49028 47.784L20.8564 34.6016L26.2137 39.9495Z" fill="#E53133"/>
<path fill-rule="evenodd" clip-rule="evenodd" d="M50.2532 12.6043L48.0229 16.1137L46.0472 16.9568L28.325 34.6858L26.1279 32.4887L43.8578 14.7597L44.7009 12.7925L48.2103 10.5605L48.3968 10.7487L45.8088 12.9118C45.3566 13.3631 45.561 14.3339 46.0132 14.7938C46.4807 15.2536 47.477 15.5253 47.9377 15.0663L50.0582 12.4093L50.2532 12.6043Z" fill="#E53133"/>
</svg>
