<svg width="60" height="60" viewBox="0 0 60 60" fill="none" xmlns="http://www.w3.org/2000/svg">
<path fill-rule="evenodd" clip-rule="evenodd" d="M30.4576 37.3049H30.4661V39.1443H29.4102L30.4576 37.3049Z" fill="#E53133"/>
<path fill-rule="evenodd" clip-rule="evenodd" d="M40.2419 22.9464C40.1652 23.1167 40.0545 23.2615 39.9183 23.3807C39.782 23.4914 39.6202 23.5851 39.4244 23.6447C39.237 23.7043 39.0241 23.7384 38.7857 23.7384C38.6664 23.7384 38.5472 23.7299 38.4365 23.7137C38.3258 23.6958 38.2236 23.6796 38.1385 23.6532C38.0448 23.6362 37.9767 23.6106 37.9171 23.5851C37.8574 23.5596 37.8234 23.5425 37.8064 23.5255C37.7893 23.5085 37.7723 23.4914 37.7638 23.4744C37.7553 23.4574 37.7553 23.4318 37.7467 23.4063C37.7382 23.3807 37.7382 23.3467 37.7382 23.3126C37.7382 23.27 37.7297 23.2274 37.7297 23.1772C37.7297 23.1167 37.7382 23.0656 37.7382 23.0231C37.7467 22.989 37.7467 22.9549 37.7638 22.9302C37.7723 22.9038 37.7808 22.8868 37.7893 22.8783C37.8064 22.8698 37.8149 22.8621 37.8319 22.8621C37.8574 22.8621 37.8915 22.8698 37.9341 22.8962C37.9682 22.9209 38.0278 22.9464 38.0959 22.972C38.164 23.006 38.2492 23.0316 38.3514 23.0571C38.445 23.075 38.5643 23.0912 38.7005 23.0912C38.8197 23.0912 38.9304 23.075 39.0326 23.0486C39.1263 23.0231 39.2115 22.989 39.2796 22.9302C39.3477 22.8783 39.3988 22.8102 39.4329 22.725C39.4754 22.6492 39.4925 22.5462 39.4925 22.4363C39.4925 22.3333 39.4754 22.2481 39.4414 22.163C39.4158 22.0863 39.3647 22.0267 39.2966 21.9671C39.237 21.916 39.1518 21.8819 39.0411 21.8479C38.939 21.8223 38.8112 21.8138 38.6579 21.8138C38.5387 21.8138 38.428 21.8138 38.3343 21.8317C38.2321 21.8394 38.147 21.8479 38.0618 21.8479C38.0022 21.8479 37.9511 21.8317 37.9341 21.8053C37.9 21.7712 37.8915 21.7201 37.8915 21.635V19.8978C37.8915 19.8211 37.9085 19.7615 37.9426 19.7274C37.9682 19.6849 38.0192 19.6687 38.0959 19.6687H39.9864C40.0034 19.6687 40.0205 19.6763 40.0375 19.6849C40.0545 19.7027 40.0716 19.7189 40.0801 19.7445C40.0886 19.7785 40.0971 19.8126 40.1056 19.8552C40.1056 19.8978 40.1141 19.9497 40.1141 20.017C40.1141 20.1362 40.0971 20.2299 40.0801 20.281C40.0545 20.3414 40.029 20.3661 39.9864 20.3661H38.5643V21.2177C38.6324 21.2092 38.709 21.2092 38.7772 21.2092C38.8538 21.2007 38.9219 21.2007 39.0071 21.2007C39.22 21.2007 39.4073 21.2271 39.5776 21.2773C39.748 21.3284 39.8842 21.4059 40.0034 21.4987C40.1141 21.6009 40.1993 21.7201 40.2589 21.8658C40.3185 22.0105 40.3526 22.18 40.3526 22.3673C40.3526 22.5888 40.3185 22.7761 40.2419 22.9464ZM31.147 23.4148C31.0107 23.517 30.8489 23.603 30.6616 23.6532C30.4742 23.7137 30.2613 23.7384 30.0399 23.7384C29.9037 23.7384 29.7759 23.7299 29.6567 23.7043C29.5375 23.6873 29.4353 23.6617 29.3416 23.6362C29.248 23.6106 29.1713 23.5766 29.1117 23.5425C29.0521 23.517 29.0095 23.4914 28.9925 23.4744C28.9755 23.4574 28.9584 23.4403 28.9499 23.4233C28.9414 23.3978 28.9329 23.3722 28.9329 23.3467C28.9244 23.322 28.9159 23.2879 28.9159 23.2445C28.9073 23.2019 28.9073 23.1508 28.9073 23.0912C28.9073 22.989 28.9159 22.9209 28.9329 22.8868C28.9499 22.8442 28.9755 22.828 29.0095 22.828C29.0266 22.828 29.0606 22.8442 29.1117 22.8698C29.1628 22.8962 29.2309 22.9302 29.3076 22.9549C29.3842 22.989 29.4779 23.0231 29.5801 23.0486C29.6908 23.075 29.81 23.0912 29.9377 23.0912C30.057 23.0912 30.1506 23.075 30.2358 23.0486C30.3295 23.0231 30.3976 22.9805 30.4572 22.9379C30.5168 22.8868 30.5679 22.828 30.5935 22.7591C30.6275 22.6909 30.6446 22.6152 30.6446 22.5291C30.6446 22.4363 30.619 22.3503 30.5849 22.2822C30.5509 22.2055 30.4998 22.1459 30.4231 22.0863C30.355 22.0352 30.2699 21.9926 30.1592 21.9671C30.0485 21.9416 29.9207 21.9245 29.7759 21.9245H29.4268C29.4013 21.9245 29.3842 21.9245 29.3587 21.916C29.3416 21.9075 29.3246 21.8905 29.3161 21.8734C29.3076 21.8479 29.2991 21.8138 29.2905 21.7712C29.282 21.7372 29.282 21.6869 29.282 21.6188C29.282 21.5583 29.282 21.5072 29.2905 21.474C29.2991 21.4306 29.3076 21.4059 29.3161 21.388C29.3246 21.3625 29.3416 21.3454 29.3587 21.3454C29.3757 21.3378 29.3927 21.3284 29.4183 21.3284H29.7674C29.8867 21.3284 29.9974 21.3114 30.091 21.2858C30.1847 21.2611 30.2613 21.2177 30.321 21.1666C30.3806 21.1155 30.4317 21.0559 30.4657 20.9801C30.4998 20.912 30.5168 20.826 30.5168 20.7408C30.5168 20.6727 30.4998 20.6046 30.4828 20.545C30.4572 20.4862 30.4231 20.4343 30.3806 20.3917C30.338 20.3414 30.2784 20.3074 30.2103 20.281C30.1421 20.2554 30.057 20.2469 29.9633 20.2469C29.8526 20.2469 29.7504 20.2639 29.6567 20.2895C29.5631 20.3235 29.4779 20.3576 29.4013 20.4002C29.3331 20.4343 29.265 20.4683 29.2139 20.5024C29.1628 20.5364 29.1202 20.5543 29.0947 20.5543C29.0777 20.5543 29.0691 20.5543 29.0521 20.545C29.0436 20.5364 29.0351 20.5203 29.0266 20.5024C29.018 20.4768 29.0095 20.4513 29.001 20.4096V20.1362C29.001 20.1021 29.0095 20.0681 29.0095 20.051C29.018 20.0255 29.0266 20.0085 29.0351 19.9914C29.0436 19.9744 29.0606 19.9574 29.0777 19.9318C29.1032 19.9156 29.1458 19.8892 29.2054 19.8475C29.2735 19.8041 29.3502 19.7709 29.4523 19.7368C29.546 19.6934 29.6567 19.6687 29.7845 19.6423C29.9122 19.6082 30.0485 19.5997 30.1932 19.5997C30.3891 19.5997 30.5594 19.6253 30.7127 19.6687C30.8575 19.7104 30.9852 19.7785 31.0874 19.8637C31.1896 19.9497 31.2662 20.051 31.3173 20.1788C31.3684 20.3074 31.394 20.4428 31.394 20.5961C31.394 20.7238 31.3854 20.8353 31.3514 20.9367C31.3173 21.0482 31.2747 21.1411 31.2151 21.2177C31.1555 21.3029 31.0789 21.3718 30.9937 21.4306C30.9 21.4902 30.7978 21.5328 30.6786 21.5583V21.5669C30.8234 21.5847 30.9426 21.6188 31.0618 21.6776C31.1725 21.7287 31.2662 21.7976 31.3429 21.8819C31.4195 21.9671 31.4791 22.0608 31.5217 22.163C31.5558 22.2652 31.5813 22.3759 31.5813 22.4951C31.5813 22.6995 31.5387 22.8698 31.4621 23.0231C31.3854 23.1849 31.2832 23.3126 31.147 23.4148ZM31.5983 39.1443C31.6324 39.1443 31.6665 39.169 31.6835 39.221C31.709 39.2627 31.7261 39.3479 31.7261 39.4679C31.7261 39.5701 31.709 39.6544 31.692 39.7055C31.6665 39.7651 31.6409 39.7907 31.5983 39.7907H31.2492V40.5145C31.2492 40.5324 31.2407 40.5486 31.2236 40.5665C31.2151 40.5826 31.1896 40.5912 31.164 40.6082C31.13 40.6167 31.0959 40.6252 31.0448 40.6252C30.9937 40.6346 30.9256 40.6346 30.8489 40.6346C30.7808 40.6346 30.7127 40.6346 30.6616 40.6252C30.6105 40.6252 30.5764 40.6167 30.5424 40.6082C30.5168 40.5912 30.4913 40.5826 30.4828 40.5665C30.4742 40.5486 30.4657 40.5324 30.4657 40.5145V39.7907H28.9329C28.9073 39.7907 28.8818 39.783 28.8562 39.783C28.8392 39.7736 28.8137 39.7566 28.8051 39.7311C28.7881 39.7055 28.7796 39.6629 28.7711 39.6204C28.7626 39.5701 28.7541 39.502 28.7541 39.4245C28.7541 39.3572 28.7626 39.3053 28.7626 39.255C28.7626 39.2031 28.7711 39.1605 28.7796 39.1264C28.7881 39.0839 28.7966 39.0498 28.8051 39.0081C28.8222 38.9732 28.8392 38.9391 28.8562 38.8974L30.0995 36.708C30.1081 36.6909 30.1251 36.6739 30.1506 36.6662C30.1762 36.6483 30.2103 36.6398 30.2528 36.6313C30.3039 36.6228 30.355 36.6143 30.4231 36.6058H30.9426C31.0193 36.6143 31.0703 36.6228 31.1214 36.6313C31.164 36.6483 31.1981 36.6569 31.2151 36.6739C31.2321 36.6909 31.2492 36.708 31.2492 36.7344V39.1443H31.5983ZM20.4426 23.6703C20.4256 23.6703 20.4086 23.6617 20.4 23.6532C20.383 23.6447 20.366 23.6277 20.3575 23.603C20.349 23.5766 20.3404 23.5425 20.3319 23.5085C20.3234 23.4667 20.3234 23.4148 20.3234 23.356C20.3234 23.2956 20.3234 23.2445 20.3319 23.2104C20.3319 23.1678 20.3404 23.1338 20.3575 23.1091C20.366 23.0827 20.3745 23.0656 20.3915 23.0571C20.4086 23.0486 20.4256 23.0409 20.4426 23.0409H21.1835V20.4428L20.5448 20.7919C20.4937 20.8175 20.4597 20.8353 20.4256 20.8353C20.4 20.843 20.3745 20.8353 20.3575 20.8175C20.3404 20.8013 20.3319 20.7672 20.3234 20.7238C20.3149 20.6812 20.3149 20.6225 20.3149 20.545V20.4257C20.3149 20.3917 20.3234 20.3661 20.3319 20.3414C20.3404 20.315 20.349 20.298 20.366 20.281C20.383 20.2733 20.4 20.2554 20.4256 20.2384L21.2857 19.6849C21.2942 19.6763 21.3027 19.6687 21.3198 19.6593C21.3368 19.6593 21.3538 19.6508 21.3794 19.6508C21.4049 19.6508 21.439 19.6423 21.4816 19.6423H21.6348C21.7115 19.6423 21.7796 19.6423 21.8222 19.6508C21.8733 19.6508 21.9073 19.6593 21.9329 19.6593C21.9584 19.6687 21.9755 19.6763 21.984 19.6934C21.9925 19.7027 21.9925 19.7189 21.9925 19.7368V23.0409H22.6482C22.6653 23.0409 22.6823 23.0486 22.6993 23.0571C22.7163 23.0656 22.7249 23.0827 22.7419 23.1091C22.7504 23.1338 22.7589 23.1678 22.7674 23.2104V23.356C22.7674 23.4148 22.7674 23.4667 22.7589 23.5085C22.7589 23.5425 22.7504 23.5766 22.7334 23.603C22.7249 23.6277 22.7078 23.6447 22.6993 23.6532C22.6823 23.6617 22.6653 23.6703 22.6482 23.6703H20.4426ZM22.5716 37.1848C22.6227 37.3126 22.6482 37.4488 22.6482 37.5936C22.6482 37.7307 22.6312 37.8576 22.6142 37.9777C22.5886 38.1045 22.5375 38.2408 22.4524 38.3856C22.3757 38.5303 22.265 38.6921 22.1288 38.871C21.984 39.0421 21.7966 39.2457 21.5582 39.4841L21.0898 39.9618H22.6653C22.6908 39.9618 22.7078 39.9618 22.7249 39.978C22.7419 39.9865 22.7589 40.0121 22.7674 40.0376C22.7845 40.0632 22.793 40.0972 22.8015 40.1407C22.8015 40.1824 22.81 40.225 22.81 40.2854C22.81 40.3442 22.8015 40.3953 22.8015 40.4379C22.793 40.4805 22.7845 40.5145 22.776 40.5401C22.7674 40.5665 22.7504 40.5912 22.7334 40.6005C22.7163 40.6082 22.6993 40.6167 22.6823 40.6167H20.383C20.3404 40.6167 20.2979 40.6167 20.2638 40.6082C20.2297 40.6005 20.2042 40.5826 20.1872 40.5571C20.1616 40.5324 20.1531 40.4983 20.1446 40.4549C20.1361 40.4038 20.1275 40.3536 20.1275 40.2761C20.1275 40.2088 20.1275 40.1483 20.1361 40.1066C20.1446 40.0547 20.1531 40.0121 20.1701 39.9695C20.1872 39.9354 20.2042 39.9014 20.2297 39.8596C20.2638 39.8247 20.2893 39.783 20.3319 39.7396L21.0302 38.9987C21.1665 38.8539 21.2772 38.7262 21.3623 38.607C21.4475 38.4878 21.5071 38.3771 21.5582 38.2834C21.6008 38.1906 21.6348 38.096 21.6519 38.0117C21.6689 37.9342 21.6774 37.8491 21.6774 37.7809C21.6774 37.7128 21.6689 37.6447 21.6519 37.5859C21.6263 37.5255 21.5923 37.4744 21.5497 37.4233C21.5071 37.3807 21.456 37.3466 21.3964 37.3211C21.3283 37.2955 21.2516 37.2785 21.1665 37.2785C21.0473 37.2785 20.9365 37.2955 20.8429 37.3296C20.7492 37.3552 20.6726 37.3892 20.5959 37.4318C20.5278 37.4659 20.4682 37.4999 20.4171 37.534C20.3745 37.568 20.3319 37.5859 20.3064 37.5859C20.2893 37.5859 20.2723 37.5766 20.2638 37.568C20.2468 37.5519 20.2382 37.534 20.2297 37.4999C20.2212 37.4744 20.2127 37.4412 20.2127 37.3892C20.2042 37.339 20.2042 37.2785 20.2042 37.2104V37.092C20.2127 37.0571 20.2127 37.0316 20.2212 37.006C20.2297 36.9813 20.2382 36.9634 20.2468 36.9472C20.2553 36.9294 20.2723 36.9038 20.2979 36.8868C20.3234 36.8612 20.3745 36.8272 20.4426 36.7846C20.5108 36.7505 20.5959 36.7165 20.6981 36.6739C20.8003 36.6398 20.911 36.6143 21.0302 36.5896C21.1494 36.5632 21.2772 36.5462 21.4049 36.5462C21.6178 36.5462 21.7966 36.5717 21.9499 36.6313C22.1117 36.6824 22.2395 36.7505 22.3417 36.8442C22.4438 36.9379 22.5205 37.0486 22.5716 37.1848ZM38.9986 18.2712C37.0655 18.2712 35.5071 19.8296 35.5071 21.7636C35.5071 23.3296 36.546 24.6581 37.9681 25.0932V29.2149H31.2832V25.0932C32.7054 24.6496 33.7358 23.3296 33.7358 21.7636C33.7358 19.8296 32.1774 18.2712 30.2528 18.2712C28.3197 18.2712 26.7614 19.8296 26.7614 21.7636C26.7614 23.3296 27.7918 24.6581 29.2139 25.0932V29.2149H22.5375V25.0932C23.9511 24.6581 24.9901 23.3296 24.9901 21.7636C24.9901 19.8296 23.4232 18.2712 21.4986 18.2712C19.574 18.2712 18.0156 19.8296 18.0156 21.7636C18.0156 23.3296 19.046 24.6581 20.4682 25.0932V35.405C19.046 35.8393 18.0156 37.1763 18.0156 38.7347C18.0156 40.6678 19.574 42.2262 21.4986 42.2262C23.4232 42.2262 24.9901 40.6678 24.9901 38.7347C24.9901 37.1763 23.9511 35.8393 22.5375 35.405V31.2834H29.2139V35.405C27.7918 35.8393 26.7614 37.1763 26.7614 38.7347C26.7614 40.6678 28.3197 42.2262 30.2528 42.2262C32.1774 42.2262 33.7358 40.6678 33.7358 38.7347C33.7358 37.1763 32.7054 35.8487 31.2832 35.405V31.2834H40.0375V25.0932C41.4511 24.6581 42.49 23.3296 42.49 21.7636C42.49 19.8296 40.9231 18.2712 38.9986 18.2712Z" fill="#E53133"/>
<path fill-rule="evenodd" clip-rule="evenodd" d="M45.5304 40.7019C45.5304 43.3682 43.3673 45.5312 40.7019 45.5312H19.7871C17.1216 45.5312 14.9671 43.3682 14.9671 40.7019V19.7871C14.9671 17.1216 17.1216 14.9586 19.7871 14.9586H40.7019C43.3673 14.9586 45.5304 17.1216 45.5304 19.7871V40.7019ZM30.2445 6C16.8576 6 6 16.8491 6 30.2445C6 43.6313 16.8576 54.489 30.2445 54.489C43.6398 54.489 54.4975 43.6313 54.4975 30.2445C54.4975 16.8491 43.6398 6 30.2445 6Z" fill="#E53133"/>
<path fill-rule="evenodd" clip-rule="evenodd" d="M30.4576 37.3049H30.4661V39.1443H29.4102L30.4576 37.3049Z" fill="#E53133"/>
<path fill-rule="evenodd" clip-rule="evenodd" d="M40.2419 22.9464C40.1652 23.1167 40.0545 23.2615 39.9183 23.3807C39.782 23.4914 39.6202 23.5851 39.4244 23.6447C39.237 23.7043 39.0241 23.7384 38.7857 23.7384C38.6664 23.7384 38.5472 23.7299 38.4365 23.7137C38.3258 23.6958 38.2236 23.6796 38.1385 23.6532C38.0448 23.6362 37.9767 23.6106 37.9171 23.5851C37.8574 23.5596 37.8234 23.5425 37.8064 23.5255C37.7893 23.5085 37.7723 23.4914 37.7638 23.4744C37.7553 23.4574 37.7553 23.4318 37.7467 23.4063C37.7382 23.3807 37.7382 23.3467 37.7382 23.3126C37.7382 23.27 37.7297 23.2274 37.7297 23.1772C37.7297 23.1167 37.7382 23.0656 37.7382 23.0231C37.7467 22.989 37.7467 22.9549 37.7638 22.9302C37.7723 22.9038 37.7808 22.8868 37.7893 22.8783C37.8064 22.8698 37.8149 22.8621 37.8319 22.8621C37.8574 22.8621 37.8915 22.8698 37.9341 22.8962C37.9682 22.9209 38.0278 22.9464 38.0959 22.972C38.164 23.006 38.2492 23.0316 38.3514 23.0571C38.445 23.075 38.5643 23.0912 38.7005 23.0912C38.8197 23.0912 38.9304 23.075 39.0326 23.0486C39.1263 23.0231 39.2115 22.989 39.2796 22.9302C39.3477 22.8783 39.3988 22.8102 39.4329 22.725C39.4754 22.6492 39.4925 22.5462 39.4925 22.4363C39.4925 22.3333 39.4754 22.2481 39.4414 22.163C39.4158 22.0863 39.3647 22.0267 39.2966 21.9671C39.237 21.916 39.1518 21.8819 39.0411 21.8479C38.939 21.8223 38.8112 21.8138 38.6579 21.8138C38.5387 21.8138 38.428 21.8138 38.3343 21.8317C38.2321 21.8394 38.147 21.8479 38.0618 21.8479C38.0022 21.8479 37.9511 21.8317 37.9341 21.8053C37.9 21.7712 37.8915 21.7201 37.8915 21.635V19.8978C37.8915 19.8211 37.9085 19.7615 37.9426 19.7274C37.9682 19.6849 38.0192 19.6687 38.0959 19.6687H39.9864C40.0034 19.6687 40.0205 19.6763 40.0375 19.6849C40.0545 19.7027 40.0716 19.7189 40.0801 19.7445C40.0886 19.7785 40.0971 19.8126 40.1056 19.8552C40.1056 19.8978 40.1141 19.9497 40.1141 20.017C40.1141 20.1362 40.0971 20.2299 40.0801 20.281C40.0545 20.3414 40.029 20.3661 39.9864 20.3661H38.5643V21.2177C38.6324 21.2092 38.709 21.2092 38.7772 21.2092C38.8538 21.2007 38.9219 21.2007 39.0071 21.2007C39.22 21.2007 39.4073 21.2271 39.5776 21.2773C39.748 21.3284 39.8842 21.4059 40.0034 21.4987C40.1141 21.6009 40.1993 21.7201 40.2589 21.8658C40.3185 22.0105 40.3526 22.18 40.3526 22.3673C40.3526 22.5888 40.3185 22.7761 40.2419 22.9464ZM31.147 23.4148C31.0107 23.517 30.8489 23.603 30.6616 23.6532C30.4742 23.7137 30.2613 23.7384 30.0399 23.7384C29.9037 23.7384 29.7759 23.7299 29.6567 23.7043C29.5375 23.6873 29.4353 23.6617 29.3416 23.6362C29.248 23.6106 29.1713 23.5766 29.1117 23.5425C29.0521 23.517 29.0095 23.4914 28.9925 23.4744C28.9755 23.4574 28.9584 23.4403 28.9499 23.4233C28.9414 23.3978 28.9329 23.3722 28.9329 23.3467C28.9244 23.322 28.9159 23.2879 28.9159 23.2445C28.9073 23.2019 28.9073 23.1508 28.9073 23.0912C28.9073 22.989 28.9159 22.9209 28.9329 22.8868C28.9499 22.8442 28.9755 22.828 29.0095 22.828C29.0266 22.828 29.0606 22.8442 29.1117 22.8698C29.1628 22.8962 29.2309 22.9302 29.3076 22.9549C29.3842 22.989 29.4779 23.0231 29.5801 23.0486C29.6908 23.075 29.81 23.0912 29.9377 23.0912C30.057 23.0912 30.1506 23.075 30.2358 23.0486C30.3295 23.0231 30.3976 22.9805 30.4572 22.9379C30.5168 22.8868 30.5679 22.828 30.5935 22.7591C30.6275 22.6909 30.6446 22.6152 30.6446 22.5291C30.6446 22.4363 30.619 22.3503 30.5849 22.2822C30.5509 22.2055 30.4998 22.1459 30.4231 22.0863C30.355 22.0352 30.2699 21.9926 30.1592 21.9671C30.0485 21.9416 29.9207 21.9245 29.7759 21.9245H29.4268C29.4013 21.9245 29.3842 21.9245 29.3587 21.916C29.3416 21.9075 29.3246 21.8905 29.3161 21.8734C29.3076 21.8479 29.2991 21.8138 29.2905 21.7712C29.282 21.7372 29.282 21.6869 29.282 21.6188C29.282 21.5583 29.282 21.5072 29.2905 21.474C29.2991 21.4306 29.3076 21.4059 29.3161 21.388C29.3246 21.3625 29.3416 21.3454 29.3587 21.3454C29.3757 21.3378 29.3927 21.3284 29.4183 21.3284H29.7674C29.8867 21.3284 29.9974 21.3114 30.091 21.2858C30.1847 21.2611 30.2613 21.2177 30.321 21.1666C30.3806 21.1155 30.4317 21.0559 30.4657 20.9801C30.4998 20.912 30.5168 20.826 30.5168 20.7408C30.5168 20.6727 30.4998 20.6046 30.4828 20.545C30.4572 20.4862 30.4231 20.4343 30.3806 20.3917C30.338 20.3414 30.2784 20.3074 30.2103 20.281C30.1421 20.2554 30.057 20.2469 29.9633 20.2469C29.8526 20.2469 29.7504 20.2639 29.6567 20.2895C29.5631 20.3235 29.4779 20.3576 29.4013 20.4002C29.3331 20.4343 29.265 20.4683 29.2139 20.5024C29.1628 20.5364 29.1202 20.5543 29.0947 20.5543C29.0777 20.5543 29.0691 20.5543 29.0521 20.545C29.0436 20.5364 29.0351 20.5203 29.0266 20.5024C29.018 20.4768 29.0095 20.4513 29.001 20.4096V20.1362C29.001 20.1021 29.0095 20.0681 29.0095 20.051C29.018 20.0255 29.0266 20.0085 29.0351 19.9914C29.0436 19.9744 29.0606 19.9574 29.0777 19.9318C29.1032 19.9156 29.1458 19.8892 29.2054 19.8475C29.2735 19.8041 29.3502 19.7709 29.4523 19.7368C29.546 19.6934 29.6567 19.6687 29.7845 19.6423C29.9122 19.6082 30.0485 19.5997 30.1932 19.5997C30.3891 19.5997 30.5594 19.6253 30.7127 19.6687C30.8575 19.7104 30.9852 19.7785 31.0874 19.8637C31.1896 19.9497 31.2662 20.051 31.3173 20.1788C31.3684 20.3074 31.394 20.4428 31.394 20.5961C31.394 20.7238 31.3854 20.8353 31.3514 20.9367C31.3173 21.0482 31.2747 21.1411 31.2151 21.2177C31.1555 21.3029 31.0789 21.3718 30.9937 21.4306C30.9 21.4902 30.7978 21.5328 30.6786 21.5583V21.5669C30.8234 21.5847 30.9426 21.6188 31.0618 21.6776C31.1725 21.7287 31.2662 21.7976 31.3429 21.8819C31.4195 21.9671 31.4791 22.0608 31.5217 22.163C31.5558 22.2652 31.5813 22.3759 31.5813 22.4951C31.5813 22.6995 31.5387 22.8698 31.4621 23.0231C31.3854 23.1849 31.2832 23.3126 31.147 23.4148ZM31.5983 39.1443C31.6324 39.1443 31.6665 39.169 31.6835 39.221C31.709 39.2627 31.7261 39.3479 31.7261 39.4679C31.7261 39.5701 31.709 39.6544 31.692 39.7055C31.6665 39.7651 31.6409 39.7907 31.5983 39.7907H31.2492V40.5145C31.2492 40.5324 31.2407 40.5486 31.2236 40.5665C31.2151 40.5826 31.1896 40.5912 31.164 40.6082C31.13 40.6167 31.0959 40.6252 31.0448 40.6252C30.9937 40.6346 30.9256 40.6346 30.8489 40.6346C30.7808 40.6346 30.7127 40.6346 30.6616 40.6252C30.6105 40.6252 30.5764 40.6167 30.5424 40.6082C30.5168 40.5912 30.4913 40.5826 30.4828 40.5665C30.4742 40.5486 30.4657 40.5324 30.4657 40.5145V39.7907H28.9329C28.9073 39.7907 28.8818 39.783 28.8562 39.783C28.8392 39.7736 28.8137 39.7566 28.8051 39.7311C28.7881 39.7055 28.7796 39.6629 28.7711 39.6204C28.7626 39.5701 28.7541 39.502 28.7541 39.4245C28.7541 39.3572 28.7626 39.3053 28.7626 39.255C28.7626 39.2031 28.7711 39.1605 28.7796 39.1264C28.7881 39.0839 28.7966 39.0498 28.8051 39.0081C28.8222 38.9732 28.8392 38.9391 28.8562 38.8974L30.0995 36.708C30.1081 36.6909 30.1251 36.6739 30.1506 36.6662C30.1762 36.6483 30.2103 36.6398 30.2528 36.6313C30.3039 36.6228 30.355 36.6143 30.4231 36.6058H30.9426C31.0193 36.6143 31.0703 36.6228 31.1214 36.6313C31.164 36.6483 31.1981 36.6569 31.2151 36.6739C31.2321 36.6909 31.2492 36.708 31.2492 36.7344V39.1443H31.5983ZM20.4426 23.6703C20.4256 23.6703 20.4086 23.6617 20.4 23.6532C20.383 23.6447 20.366 23.6277 20.3575 23.603C20.349 23.5766 20.3404 23.5425 20.3319 23.5085C20.3234 23.4667 20.3234 23.4148 20.3234 23.356C20.3234 23.2956 20.3234 23.2445 20.3319 23.2104C20.3319 23.1678 20.3404 23.1338 20.3575 23.1091C20.366 23.0827 20.3745 23.0656 20.3915 23.0571C20.4086 23.0486 20.4256 23.0409 20.4426 23.0409H21.1835V20.4428L20.5448 20.7919C20.4937 20.8175 20.4597 20.8353 20.4256 20.8353C20.4 20.843 20.3745 20.8353 20.3575 20.8175C20.3404 20.8013 20.3319 20.7672 20.3234 20.7238C20.3149 20.6812 20.3149 20.6225 20.3149 20.545V20.4257C20.3149 20.3917 20.3234 20.3661 20.3319 20.3414C20.3404 20.315 20.349 20.298 20.366 20.281C20.383 20.2733 20.4 20.2554 20.4256 20.2384L21.2857 19.6849C21.2942 19.6763 21.3027 19.6687 21.3198 19.6593C21.3368 19.6593 21.3538 19.6508 21.3794 19.6508C21.4049 19.6508 21.439 19.6423 21.4816 19.6423H21.6348C21.7115 19.6423 21.7796 19.6423 21.8222 19.6508C21.8733 19.6508 21.9073 19.6593 21.9329 19.6593C21.9584 19.6687 21.9755 19.6763 21.984 19.6934C21.9925 19.7027 21.9925 19.7189 21.9925 19.7368V23.0409H22.6482C22.6653 23.0409 22.6823 23.0486 22.6993 23.0571C22.7163 23.0656 22.7249 23.0827 22.7419 23.1091C22.7504 23.1338 22.7589 23.1678 22.7674 23.2104V23.356C22.7674 23.4148 22.7674 23.4667 22.7589 23.5085C22.7589 23.5425 22.7504 23.5766 22.7334 23.603C22.7249 23.6277 22.7078 23.6447 22.6993 23.6532C22.6823 23.6617 22.6653 23.6703 22.6482 23.6703H20.4426ZM22.5716 37.1848C22.6227 37.3126 22.6482 37.4488 22.6482 37.5936C22.6482 37.7307 22.6312 37.8576 22.6142 37.9777C22.5886 38.1045 22.5375 38.2408 22.4524 38.3856C22.3757 38.5303 22.265 38.6921 22.1288 38.871C21.984 39.0421 21.7966 39.2457 21.5582 39.4841L21.0898 39.9618H22.6653C22.6908 39.9618 22.7078 39.9618 22.7249 39.978C22.7419 39.9865 22.7589 40.0121 22.7674 40.0376C22.7845 40.0632 22.793 40.0972 22.8015 40.1407C22.8015 40.1824 22.81 40.225 22.81 40.2854C22.81 40.3442 22.8015 40.3953 22.8015 40.4379C22.793 40.4805 22.7845 40.5145 22.776 40.5401C22.7674 40.5665 22.7504 40.5912 22.7334 40.6005C22.7163 40.6082 22.6993 40.6167 22.6823 40.6167H20.383C20.3404 40.6167 20.2979 40.6167 20.2638 40.6082C20.2297 40.6005 20.2042 40.5826 20.1872 40.5571C20.1616 40.5324 20.1531 40.4983 20.1446 40.4549C20.1361 40.4038 20.1275 40.3536 20.1275 40.2761C20.1275 40.2088 20.1275 40.1483 20.1361 40.1066C20.1446 40.0547 20.1531 40.0121 20.1701 39.9695C20.1872 39.9354 20.2042 39.9014 20.2297 39.8596C20.2638 39.8247 20.2893 39.783 20.3319 39.7396L21.0302 38.9987C21.1665 38.8539 21.2772 38.7262 21.3623 38.607C21.4475 38.4878 21.5071 38.3771 21.5582 38.2834C21.6008 38.1906 21.6348 38.096 21.6519 38.0117C21.6689 37.9342 21.6774 37.8491 21.6774 37.7809C21.6774 37.7128 21.6689 37.6447 21.6519 37.5859C21.6263 37.5255 21.5923 37.4744 21.5497 37.4233C21.5071 37.3807 21.456 37.3466 21.3964 37.3211C21.3283 37.2955 21.2516 37.2785 21.1665 37.2785C21.0473 37.2785 20.9365 37.2955 20.8429 37.3296C20.7492 37.3552 20.6726 37.3892 20.5959 37.4318C20.5278 37.4659 20.4682 37.4999 20.4171 37.534C20.3745 37.568 20.3319 37.5859 20.3064 37.5859C20.2893 37.5859 20.2723 37.5766 20.2638 37.568C20.2468 37.5519 20.2382 37.534 20.2297 37.4999C20.2212 37.4744 20.2127 37.4412 20.2127 37.3892C20.2042 37.339 20.2042 37.2785 20.2042 37.2104V37.092C20.2127 37.0571 20.2127 37.0316 20.2212 37.006C20.2297 36.9813 20.2382 36.9634 20.2468 36.9472C20.2553 36.9294 20.2723 36.9038 20.2979 36.8868C20.3234 36.8612 20.3745 36.8272 20.4426 36.7846C20.5108 36.7505 20.5959 36.7165 20.6981 36.6739C20.8003 36.6398 20.911 36.6143 21.0302 36.5896C21.1494 36.5632 21.2772 36.5462 21.4049 36.5462C21.6178 36.5462 21.7966 36.5717 21.9499 36.6313C22.1117 36.6824 22.2395 36.7505 22.3417 36.8442C22.4438 36.9379 22.5205 37.0486 22.5716 37.1848ZM38.9986 18.2712C37.0655 18.2712 35.5071 19.8296 35.5071 21.7636C35.5071 23.3296 36.546 24.6581 37.9681 25.0932V29.2149H31.2832V25.0932C32.7054 24.6496 33.7358 23.3296 33.7358 21.7636C33.7358 19.8296 32.1774 18.2712 30.2528 18.2712C28.3197 18.2712 26.7614 19.8296 26.7614 21.7636C26.7614 23.3296 27.7918 24.6581 29.2139 25.0932V29.2149H22.5375V25.0932C23.9511 24.6581 24.9901 23.3296 24.9901 21.7636C24.9901 19.8296 23.4232 18.2712 21.4986 18.2712C19.574 18.2712 18.0156 19.8296 18.0156 21.7636C18.0156 23.3296 19.046 24.6581 20.4682 25.0932V35.405C19.046 35.8393 18.0156 37.1763 18.0156 38.7347C18.0156 40.6678 19.574 42.2262 21.4986 42.2262C23.4232 42.2262 24.9901 40.6678 24.9901 38.7347C24.9901 37.1763 23.9511 35.8393 22.5375 35.405V31.2834H29.2139V35.405C27.7918 35.8393 26.7614 37.1763 26.7614 38.7347C26.7614 40.6678 28.3197 42.2262 30.2528 42.2262C32.1774 42.2262 33.7358 40.6678 33.7358 38.7347C33.7358 37.1763 32.7054 35.8487 31.2832 35.405V31.2834H40.0375V25.0932C41.4511 24.6581 42.49 23.3296 42.49 21.7636C42.49 19.8296 40.9231 18.2712 38.9986 18.2712Z" fill="#E53133"/>
<path fill-rule="evenodd" clip-rule="evenodd" d="M30.4576 37.3049H30.4661V39.1443H29.4102L30.4576 37.3049Z" fill="#E53133"/>
<path fill-rule="evenodd" clip-rule="evenodd" d="M40.2419 22.9464C40.1652 23.1167 40.0545 23.2615 39.9183 23.3807C39.782 23.4914 39.6202 23.5851 39.4244 23.6447C39.237 23.7043 39.0241 23.7384 38.7857 23.7384C38.6664 23.7384 38.5472 23.7299 38.4365 23.7137C38.3258 23.6958 38.2236 23.6796 38.1385 23.6532C38.0448 23.6362 37.9767 23.6106 37.9171 23.5851C37.8574 23.5596 37.8234 23.5425 37.8064 23.5255C37.7893 23.5085 37.7723 23.4914 37.7638 23.4744C37.7553 23.4574 37.7553 23.4318 37.7467 23.4063C37.7382 23.3807 37.7382 23.3467 37.7382 23.3126C37.7382 23.27 37.7297 23.2274 37.7297 23.1772C37.7297 23.1167 37.7382 23.0656 37.7382 23.0231C37.7467 22.989 37.7467 22.9549 37.7638 22.9302C37.7723 22.9038 37.7808 22.8868 37.7893 22.8783C37.8064 22.8698 37.8149 22.8621 37.8319 22.8621C37.8574 22.8621 37.8915 22.8698 37.9341 22.8962C37.9682 22.9209 38.0278 22.9464 38.0959 22.972C38.164 23.006 38.2492 23.0316 38.3514 23.0571C38.445 23.075 38.5643 23.0912 38.7005 23.0912C38.8197 23.0912 38.9304 23.075 39.0326 23.0486C39.1263 23.0231 39.2115 22.989 39.2796 22.9302C39.3477 22.8783 39.3988 22.8102 39.4329 22.725C39.4754 22.6492 39.4925 22.5462 39.4925 22.4363C39.4925 22.3333 39.4754 22.2481 39.4414 22.163C39.4158 22.0863 39.3647 22.0267 39.2966 21.9671C39.237 21.916 39.1518 21.8819 39.0411 21.8479C38.939 21.8223 38.8112 21.8138 38.6579 21.8138C38.5387 21.8138 38.428 21.8138 38.3343 21.8317C38.2321 21.8394 38.147 21.8479 38.0618 21.8479C38.0022 21.8479 37.9511 21.8317 37.9341 21.8053C37.9 21.7712 37.8915 21.7201 37.8915 21.635V19.8978C37.8915 19.8211 37.9085 19.7615 37.9426 19.7274C37.9682 19.6849 38.0192 19.6687 38.0959 19.6687H39.9864C40.0034 19.6687 40.0205 19.6763 40.0375 19.6849C40.0545 19.7027 40.0716 19.7189 40.0801 19.7445C40.0886 19.7785 40.0971 19.8126 40.1056 19.8552C40.1056 19.8978 40.1141 19.9497 40.1141 20.017C40.1141 20.1362 40.0971 20.2299 40.0801 20.281C40.0545 20.3414 40.029 20.3661 39.9864 20.3661H38.5643V21.2177C38.6324 21.2092 38.709 21.2092 38.7772 21.2092C38.8538 21.2007 38.9219 21.2007 39.0071 21.2007C39.22 21.2007 39.4073 21.2271 39.5776 21.2773C39.748 21.3284 39.8842 21.4059 40.0034 21.4987C40.1141 21.6009 40.1993 21.7201 40.2589 21.8658C40.3185 22.0105 40.3526 22.18 40.3526 22.3673C40.3526 22.5888 40.3185 22.7761 40.2419 22.9464ZM31.147 23.4148C31.0107 23.517 30.8489 23.603 30.6616 23.6532C30.4742 23.7137 30.2613 23.7384 30.0399 23.7384C29.9037 23.7384 29.7759 23.7299 29.6567 23.7043C29.5375 23.6873 29.4353 23.6617 29.3416 23.6362C29.248 23.6106 29.1713 23.5766 29.1117 23.5425C29.0521 23.517 29.0095 23.4914 28.9925 23.4744C28.9755 23.4574 28.9584 23.4403 28.9499 23.4233C28.9414 23.3978 28.9329 23.3722 28.9329 23.3467C28.9244 23.322 28.9159 23.2879 28.9159 23.2445C28.9073 23.2019 28.9073 23.1508 28.9073 23.0912C28.9073 22.989 28.9159 22.9209 28.9329 22.8868C28.9499 22.8442 28.9755 22.828 29.0095 22.828C29.0266 22.828 29.0606 22.8442 29.1117 22.8698C29.1628 22.8962 29.2309 22.9302 29.3076 22.9549C29.3842 22.989 29.4779 23.0231 29.5801 23.0486C29.6908 23.075 29.81 23.0912 29.9377 23.0912C30.057 23.0912 30.1506 23.075 30.2358 23.0486C30.3295 23.0231 30.3976 22.9805 30.4572 22.9379C30.5168 22.8868 30.5679 22.828 30.5935 22.7591C30.6275 22.6909 30.6446 22.6152 30.6446 22.5291C30.6446 22.4363 30.619 22.3503 30.5849 22.2822C30.5509 22.2055 30.4998 22.1459 30.4231 22.0863C30.355 22.0352 30.2699 21.9926 30.1592 21.9671C30.0485 21.9416 29.9207 21.9245 29.7759 21.9245H29.4268C29.4013 21.9245 29.3842 21.9245 29.3587 21.916C29.3416 21.9075 29.3246 21.8905 29.3161 21.8734C29.3076 21.8479 29.2991 21.8138 29.2905 21.7712C29.282 21.7372 29.282 21.6869 29.282 21.6188C29.282 21.5583 29.282 21.5072 29.2905 21.474C29.2991 21.4306 29.3076 21.4059 29.3161 21.388C29.3246 21.3625 29.3416 21.3454 29.3587 21.3454C29.3757 21.3378 29.3927 21.3284 29.4183 21.3284H29.7674C29.8867 21.3284 29.9974 21.3114 30.091 21.2858C30.1847 21.2611 30.2613 21.2177 30.321 21.1666C30.3806 21.1155 30.4317 21.0559 30.4657 20.9801C30.4998 20.912 30.5168 20.826 30.5168 20.7408C30.5168 20.6727 30.4998 20.6046 30.4828 20.545C30.4572 20.4862 30.4231 20.4343 30.3806 20.3917C30.338 20.3414 30.2784 20.3074 30.2103 20.281C30.1421 20.2554 30.057 20.2469 29.9633 20.2469C29.8526 20.2469 29.7504 20.2639 29.6567 20.2895C29.5631 20.3235 29.4779 20.3576 29.4013 20.4002C29.3331 20.4343 29.265 20.4683 29.2139 20.5024C29.1628 20.5364 29.1202 20.5543 29.0947 20.5543C29.0777 20.5543 29.0691 20.5543 29.0521 20.545C29.0436 20.5364 29.0351 20.5203 29.0266 20.5024C29.018 20.4768 29.0095 20.4513 29.001 20.4096V20.1362C29.001 20.1021 29.0095 20.0681 29.0095 20.051C29.018 20.0255 29.0266 20.0085 29.0351 19.9914C29.0436 19.9744 29.0606 19.9574 29.0777 19.9318C29.1032 19.9156 29.1458 19.8892 29.2054 19.8475C29.2735 19.8041 29.3502 19.7709 29.4523 19.7368C29.546 19.6934 29.6567 19.6687 29.7845 19.6423C29.9122 19.6082 30.0485 19.5997 30.1932 19.5997C30.3891 19.5997 30.5594 19.6253 30.7127 19.6687C30.8575 19.7104 30.9852 19.7785 31.0874 19.8637C31.1896 19.9497 31.2662 20.051 31.3173 20.1788C31.3684 20.3074 31.394 20.4428 31.394 20.5961C31.394 20.7238 31.3854 20.8353 31.3514 20.9367C31.3173 21.0482 31.2747 21.1411 31.2151 21.2177C31.1555 21.3029 31.0789 21.3718 30.9937 21.4306C30.9 21.4902 30.7978 21.5328 30.6786 21.5583V21.5669C30.8234 21.5847 30.9426 21.6188 31.0618 21.6776C31.1725 21.7287 31.2662 21.7976 31.3429 21.8819C31.4195 21.9671 31.4791 22.0608 31.5217 22.163C31.5558 22.2652 31.5813 22.3759 31.5813 22.4951C31.5813 22.6995 31.5387 22.8698 31.4621 23.0231C31.3854 23.1849 31.2832 23.3126 31.147 23.4148ZM31.5983 39.1443C31.6324 39.1443 31.6665 39.169 31.6835 39.221C31.709 39.2627 31.7261 39.3479 31.7261 39.4679C31.7261 39.5701 31.709 39.6544 31.692 39.7055C31.6665 39.7651 31.6409 39.7907 31.5983 39.7907H31.2492V40.5145C31.2492 40.5324 31.2407 40.5486 31.2236 40.5665C31.2151 40.5826 31.1896 40.5912 31.164 40.6082C31.13 40.6167 31.0959 40.6252 31.0448 40.6252C30.9937 40.6346 30.9256 40.6346 30.8489 40.6346C30.7808 40.6346 30.7127 40.6346 30.6616 40.6252C30.6105 40.6252 30.5764 40.6167 30.5424 40.6082C30.5168 40.5912 30.4913 40.5826 30.4828 40.5665C30.4742 40.5486 30.4657 40.5324 30.4657 40.5145V39.7907H28.9329C28.9073 39.7907 28.8818 39.783 28.8562 39.783C28.8392 39.7736 28.8137 39.7566 28.8051 39.7311C28.7881 39.7055 28.7796 39.6629 28.7711 39.6204C28.7626 39.5701 28.7541 39.502 28.7541 39.4245C28.7541 39.3572 28.7626 39.3053 28.7626 39.255C28.7626 39.2031 28.7711 39.1605 28.7796 39.1264C28.7881 39.0839 28.7966 39.0498 28.8051 39.0081C28.8222 38.9732 28.8392 38.9391 28.8562 38.8974L30.0995 36.708C30.1081 36.6909 30.1251 36.6739 30.1506 36.6662C30.1762 36.6483 30.2103 36.6398 30.2528 36.6313C30.3039 36.6228 30.355 36.6143 30.4231 36.6058H30.9426C31.0193 36.6143 31.0703 36.6228 31.1214 36.6313C31.164 36.6483 31.1981 36.6569 31.2151 36.6739C31.2321 36.6909 31.2492 36.708 31.2492 36.7344V39.1443H31.5983ZM20.4426 23.6703C20.4256 23.6703 20.4086 23.6617 20.4 23.6532C20.383 23.6447 20.366 23.6277 20.3575 23.603C20.349 23.5766 20.3404 23.5425 20.3319 23.5085C20.3234 23.4667 20.3234 23.4148 20.3234 23.356C20.3234 23.2956 20.3234 23.2445 20.3319 23.2104C20.3319 23.1678 20.3404 23.1338 20.3575 23.1091C20.366 23.0827 20.3745 23.0656 20.3915 23.0571C20.4086 23.0486 20.4256 23.0409 20.4426 23.0409H21.1835V20.4428L20.5448 20.7919C20.4937 20.8175 20.4597 20.8353 20.4256 20.8353C20.4 20.843 20.3745 20.8353 20.3575 20.8175C20.3404 20.8013 20.3319 20.7672 20.3234 20.7238C20.3149 20.6812 20.3149 20.6225 20.3149 20.545V20.4257C20.3149 20.3917 20.3234 20.3661 20.3319 20.3414C20.3404 20.315 20.349 20.298 20.366 20.281C20.383 20.2733 20.4 20.2554 20.4256 20.2384L21.2857 19.6849C21.2942 19.6763 21.3027 19.6687 21.3198 19.6593C21.3368 19.6593 21.3538 19.6508 21.3794 19.6508C21.4049 19.6508 21.439 19.6423 21.4816 19.6423H21.6348C21.7115 19.6423 21.7796 19.6423 21.8222 19.6508C21.8733 19.6508 21.9073 19.6593 21.9329 19.6593C21.9584 19.6687 21.9755 19.6763 21.984 19.6934C21.9925 19.7027 21.9925 19.7189 21.9925 19.7368V23.0409H22.6482C22.6653 23.0409 22.6823 23.0486 22.6993 23.0571C22.7163 23.0656 22.7249 23.0827 22.7419 23.1091C22.7504 23.1338 22.7589 23.1678 22.7674 23.2104V23.356C22.7674 23.4148 22.7674 23.4667 22.7589 23.5085C22.7589 23.5425 22.7504 23.5766 22.7334 23.603C22.7249 23.6277 22.7078 23.6447 22.6993 23.6532C22.6823 23.6617 22.6653 23.6703 22.6482 23.6703H20.4426ZM22.5716 37.1848C22.6227 37.3126 22.6482 37.4488 22.6482 37.5936C22.6482 37.7307 22.6312 37.8576 22.6142 37.9777C22.5886 38.1045 22.5375 38.2408 22.4524 38.3856C22.3757 38.5303 22.265 38.6921 22.1288 38.871C21.984 39.0421 21.7966 39.2457 21.5582 39.4841L21.0898 39.9618H22.6653C22.6908 39.9618 22.7078 39.9618 22.7249 39.978C22.7419 39.9865 22.7589 40.0121 22.7674 40.0376C22.7845 40.0632 22.793 40.0972 22.8015 40.1407C22.8015 40.1824 22.81 40.225 22.81 40.2854C22.81 40.3442 22.8015 40.3953 22.8015 40.4379C22.793 40.4805 22.7845 40.5145 22.776 40.5401C22.7674 40.5665 22.7504 40.5912 22.7334 40.6005C22.7163 40.6082 22.6993 40.6167 22.6823 40.6167H20.383C20.3404 40.6167 20.2979 40.6167 20.2638 40.6082C20.2297 40.6005 20.2042 40.5826 20.1872 40.5571C20.1616 40.5324 20.1531 40.4983 20.1446 40.4549C20.1361 40.4038 20.1275 40.3536 20.1275 40.2761C20.1275 40.2088 20.1275 40.1483 20.1361 40.1066C20.1446 40.0547 20.1531 40.0121 20.1701 39.9695C20.1872 39.9354 20.2042 39.9014 20.2297 39.8596C20.2638 39.8247 20.2893 39.783 20.3319 39.7396L21.0302 38.9987C21.1665 38.8539 21.2772 38.7262 21.3623 38.607C21.4475 38.4878 21.5071 38.3771 21.5582 38.2834C21.6008 38.1906 21.6348 38.096 21.6519 38.0117C21.6689 37.9342 21.6774 37.8491 21.6774 37.7809C21.6774 37.7128 21.6689 37.6447 21.6519 37.5859C21.6263 37.5255 21.5923 37.4744 21.5497 37.4233C21.5071 37.3807 21.456 37.3466 21.3964 37.3211C21.3283 37.2955 21.2516 37.2785 21.1665 37.2785C21.0473 37.2785 20.9365 37.2955 20.8429 37.3296C20.7492 37.3552 20.6726 37.3892 20.5959 37.4318C20.5278 37.4659 20.4682 37.4999 20.4171 37.534C20.3745 37.568 20.3319 37.5859 20.3064 37.5859C20.2893 37.5859 20.2723 37.5766 20.2638 37.568C20.2468 37.5519 20.2382 37.534 20.2297 37.4999C20.2212 37.4744 20.2127 37.4412 20.2127 37.3892C20.2042 37.339 20.2042 37.2785 20.2042 37.2104V37.092C20.2127 37.0571 20.2127 37.0316 20.2212 37.006C20.2297 36.9813 20.2382 36.9634 20.2468 36.9472C20.2553 36.9294 20.2723 36.9038 20.2979 36.8868C20.3234 36.8612 20.3745 36.8272 20.4426 36.7846C20.5108 36.7505 20.5959 36.7165 20.6981 36.6739C20.8003 36.6398 20.911 36.6143 21.0302 36.5896C21.1494 36.5632 21.2772 36.5462 21.4049 36.5462C21.6178 36.5462 21.7966 36.5717 21.9499 36.6313C22.1117 36.6824 22.2395 36.7505 22.3417 36.8442C22.4438 36.9379 22.5205 37.0486 22.5716 37.1848ZM38.9986 18.2712C37.0655 18.2712 35.5071 19.8296 35.5071 21.7636C35.5071 23.3296 36.546 24.6581 37.9681 25.0932V29.2149H31.2832V25.0932C32.7054 24.6496 33.7358 23.3296 33.7358 21.7636C33.7358 19.8296 32.1774 18.2712 30.2528 18.2712C28.3197 18.2712 26.7614 19.8296 26.7614 21.7636C26.7614 23.3296 27.7918 24.6581 29.2139 25.0932V29.2149H22.5375V25.0932C23.9511 24.6581 24.9901 23.3296 24.9901 21.7636C24.9901 19.8296 23.4232 18.2712 21.4986 18.2712C19.574 18.2712 18.0156 19.8296 18.0156 21.7636C18.0156 23.3296 19.046 24.6581 20.4682 25.0932V35.405C19.046 35.8393 18.0156 37.1763 18.0156 38.7347C18.0156 40.6678 19.574 42.2262 21.4986 42.2262C23.4232 42.2262 24.9901 40.6678 24.9901 38.7347C24.9901 37.1763 23.9511 35.8393 22.5375 35.405V31.2834H29.2139V35.405C27.7918 35.8393 26.7614 37.1763 26.7614 38.7347C26.7614 40.6678 28.3197 42.2262 30.2528 42.2262C32.1774 42.2262 33.7358 40.6678 33.7358 38.7347C33.7358 37.1763 32.7054 35.8487 31.2832 35.405V31.2834H40.0375V25.0932C41.4511 24.6581 42.49 23.3296 42.49 21.7636C42.49 19.8296 40.9231 18.2712 38.9986 18.2712Z" fill="#E53133"/>
<path fill-rule="evenodd" clip-rule="evenodd" d="M39.7911 37.7809C39.757 37.8669 39.7059 37.9341 39.6463 37.9937C39.5782 38.0534 39.493 38.0959 39.3909 38.13C39.2887 38.1641 39.1694 38.1811 39.0332 38.1811H38.5478V36.8526H38.9821C39.0843 36.8526 39.1694 36.8611 39.2291 36.8611C39.2972 36.8697 39.3483 36.879 39.3994 36.8952C39.5527 36.9378 39.6719 37.0153 39.74 37.1166C39.8081 37.2282 39.8422 37.3551 39.8422 37.5083C39.8422 37.6105 39.8252 37.7042 39.7911 37.7809ZM41.0514 40.5826C41.0429 40.54 41.0174 40.4718 40.9833 40.3782L40.5831 39.4585C40.5405 39.3478 40.4894 39.2456 40.4468 39.1604C40.3957 39.0761 40.3446 38.9986 40.2935 38.9313C40.2339 38.8538 40.1828 38.8027 40.1147 38.7517C40.0551 38.7006 39.987 38.6665 39.9188 38.6324C40.0636 38.5822 40.1913 38.5217 40.3106 38.4451C40.4213 38.377 40.5149 38.2833 40.5916 38.1811C40.6682 38.0798 40.7278 37.9682 40.7704 37.8405C40.8045 37.7127 40.83 37.568 40.83 37.4147C40.83 37.2282 40.8045 37.057 40.7449 36.9208C40.6853 36.776 40.6086 36.6483 40.5064 36.5461C40.3957 36.4439 40.268 36.3587 40.1232 36.2906C39.9699 36.2225 39.7996 36.1799 39.6123 36.1543C39.5527 36.1458 39.476 36.1373 39.3994 36.1373C39.3142 36.1296 39.2205 36.1296 39.0928 36.1296H37.8836C37.8069 36.1296 37.7388 36.1543 37.6792 36.1969C37.6281 36.248 37.6025 36.3247 37.6025 36.4268V40.6762C37.6025 40.7018 37.6111 40.7188 37.6196 40.7358C37.6366 40.7614 37.6621 40.7699 37.6962 40.7869C37.7388 40.7954 37.7814 40.804 37.8495 40.8133C37.9091 40.821 37.9858 40.8295 38.0709 40.8295C38.1646 40.8295 38.2497 40.821 38.3094 40.8133C38.369 40.804 38.4115 40.7954 38.4541 40.7869C38.4882 40.7699 38.5137 40.7614 38.5308 40.7358C38.5478 40.7188 38.5478 40.7018 38.5478 40.6762V38.8973H38.8458C38.948 38.8973 39.0417 38.9049 39.1184 38.939C39.195 38.9731 39.2631 39.0156 39.3227 39.0761C39.3823 39.1442 39.4334 39.2209 39.476 39.3052C39.5271 39.3989 39.5782 39.5019 39.6293 39.6203L40.0466 40.6677C40.0551 40.6933 40.0721 40.7188 40.0806 40.7452C40.0977 40.7614 40.1232 40.7793 40.1573 40.7954C40.1913 40.804 40.2424 40.8133 40.302 40.821C40.3617 40.821 40.4383 40.8295 40.5405 40.8295C40.6597 40.8295 40.7619 40.821 40.83 40.821C40.8982 40.8133 40.9492 40.804 40.9833 40.7954C41.0259 40.7793 41.0429 40.7614 41.06 40.7452C41.0685 40.7273 41.0685 40.7111 41.0685 40.6847C41.0685 40.6592 41.06 40.6251 41.0514 40.5826Z" fill="#E53133"/>
</svg>
