<svg width="60" height="60" viewBox="0 0 60 60" fill="none" xmlns="http://www.w3.org/2000/svg">
<path fill-rule="evenodd" clip-rule="evenodd" d="M52.4031 13.2473H52.599V13.1673L52.4031 13.2473ZM52.2924 12.2773C52.4031 12.2773 52.5053 12.2973 52.599 12.3173V12.2773H52.2924ZM35.2266 13.1573V13.2473H35.448L35.2266 13.1573V13.1573Z" fill="#E53133"/>
<path fill-rule="evenodd" clip-rule="evenodd" d="M52.6241 18.3065L46.8674 20.3333V16.2713L52.6241 14.2445V18.3065ZM52.6241 23.5778L46.8674 25.6046V21.5511L52.6241 19.5243V23.5778ZM52.6241 28.8576L46.8674 30.8844V26.8308L52.6241 24.7956V28.8576ZM52.6241 34.1289L46.8674 36.1557V32.1021L52.6241 30.0754V34.1289ZM52.6241 39.4087L46.8674 41.4354V37.3819L52.6241 35.3552V39.4087ZM52.6241 44.68L46.8674 46.7152V42.6532L52.6241 40.6264V44.68ZM52.6241 49.9598L46.8674 51.9865V47.933L52.6241 45.9062V49.9598ZM52.6241 54.0729H46.8674V53.2128L52.6241 51.1775V54.0729ZM44.3978 54.0729H45.7348V13.1034H44.3978V54.0729ZM42.124 54.0729H43.4525V13.1034H42.124V54.0729ZM35.2261 54.0729V51.1775L40.9829 53.2128V54.0729H35.2261ZM35.2261 45.9062L40.9829 47.933V51.9865L35.2261 49.9598V45.9062ZM35.2261 40.6264L40.9829 42.6532V46.7152L35.2261 44.68V40.6264ZM35.2261 35.3552L40.9829 37.3819V41.4354L35.2261 39.4087V35.3552ZM35.2261 30.0754L40.9829 32.1021V36.1557L35.2261 34.1289V30.0754ZM35.2261 24.7956L40.9829 26.8308V30.8844L35.2261 28.8576V24.7956ZM35.2261 19.5243L40.9829 21.5511V25.6046L35.2261 23.5778V19.5243ZM35.2261 14.2445L40.9829 16.2713V20.3333L35.2261 18.3065V14.2445ZM35.2261 13.0267L35.4476 13.1034H40.9829V15.0535L35.4476 13.1034H35.2261V13.0267ZM46.8674 13.1034H52.4027L52.5986 13.0353V13.1034H52.4027L46.8674 15.0535V13.1034ZM53.1351 12.3199C53.0244 12.2944 52.9137 12.2773 52.8029 12.2773H52.5986V12.3114C52.5049 12.2944 52.4027 12.2773 52.292 12.2773H35.1154C34.2809 12.2773 33.5996 12.9586 33.5996 13.8017V53.5449C33.5996 54.388 34.2809 55.0607 35.1154 55.0607H52.8029C52.9137 55.0607 53.0244 55.0522 53.1351 55.0267C53.8078 54.8734 54.3188 54.2773 54.3188 53.5449V13.8017C54.3188 13.0693 53.8078 12.4647 53.1351 12.3199Z" fill="#E53133"/>
<path fill-rule="evenodd" clip-rule="evenodd" d="M44.3984 55.0692H45.7354V55.0607H44.3984V55.0692Z" fill="#E53133"/>
<path fill-rule="evenodd" clip-rule="evenodd" d="M42.124 55.0692H43.4525V55.0607H42.124V55.0692Z" fill="#E53133"/>
<path fill-rule="evenodd" clip-rule="evenodd" d="M31.2832 46.4216H32.6883V20.9202H31.2832V46.4216Z" fill="#E53133"/>
<path fill-rule="evenodd" clip-rule="evenodd" d="M30.4321 30.3054V37.0414H6V30.3054H16.6704C16.8067 30.7908 17.0451 31.2422 17.3602 31.6169C17.9393 32.3066 18.7483 32.6984 19.5914 32.6984C20.9539 32.6984 22.1036 31.6935 22.5123 30.3054H30.4321Z" fill="#E53133"/>
<path fill-rule="evenodd" clip-rule="evenodd" d="M21.797 6.22262H17.3857C17.5646 4.96229 18.4843 4 19.5914 4C20.2045 4 20.7666 4.29805 21.1668 4.77494C21.4989 5.15815 21.7203 5.66058 21.797 6.22262Z" fill="#E53133"/>
<path fill-rule="evenodd" clip-rule="evenodd" d="M21.8227 28.7214V29.1983C21.8227 30.663 20.8263 31.8467 19.5915 31.8467C18.9784 31.8467 18.4163 31.5487 18.0161 31.0718C17.6158 30.5949 17.3604 29.9307 17.3604 29.1983V28.7214H21.8227Z" fill="#E53133"/>
<path fill-rule="evenodd" clip-rule="evenodd" d="M23.3039 11.6387H21.175L23.4657 12.4647C23.5254 12.4903 23.585 12.5158 23.6446 12.5499C23.6531 12.5584 23.6531 12.5584 23.6616 12.5584C23.9937 12.6946 24.2322 13.0268 24.2322 13.4185C24.2322 13.9294 23.8149 14.3467 23.3039 14.3467H21.175L23.4657 15.1727C23.5254 15.1983 23.585 15.2238 23.6446 15.2579C23.6531 15.2664 23.6531 15.2664 23.6616 15.2664C23.9937 15.4027 24.2322 15.7348 24.2322 16.118C24.2322 16.6375 23.8149 17.0547 23.3039 17.0547H21.2005L23.4657 17.8723C23.5339 17.8978 23.602 17.9319 23.6616 17.9744C23.9937 18.1107 24.2322 18.4428 24.2322 18.826C24.2322 19.337 23.8149 19.7542 23.3039 19.7542H21.175L23.4657 20.5803C23.5254 20.6058 23.585 20.6314 23.6361 20.6654C23.9852 20.7932 24.2322 21.1338 24.2322 21.5341C24.2322 22.045 23.8149 22.4623 23.3039 22.4623H21.175L23.4657 23.2883C23.5254 23.3139 23.585 23.3394 23.6446 23.3735C23.6531 23.382 23.6531 23.382 23.6616 23.382C23.9937 23.5182 24.2322 23.8503 24.2322 24.2336C24.2322 24.7445 23.8149 25.1618 23.3039 25.1618H21.175L23.4657 25.9878C23.5254 26.0134 23.585 26.0389 23.6446 26.073C23.6531 26.0815 23.6531 26.0815 23.6616 26.0815C23.9937 26.2177 24.2322 26.5499 24.2322 26.9416C24.2322 27.4525 23.8149 27.8698 23.3039 27.8698H15.5715C15.052 27.8698 14.6348 27.4525 14.6348 26.9416C14.6348 26.4221 15.052 26.0048 15.5715 26.0048H18.0156L15.6737 25.1618H15.5715C15.052 25.1618 14.6348 24.7445 14.6348 24.2336C14.6348 23.7226 15.052 23.3053 15.5715 23.3053H18.0326L15.6993 22.4623H15.5715C15.052 22.4623 14.6348 22.045 14.6348 21.5341C14.6348 21.0146 15.052 20.5973 15.5715 20.5973H18.0156L15.6737 19.7542H15.5715C15.052 19.7542 14.6348 19.337 14.6348 18.826C14.6348 18.3151 15.052 17.8978 15.5715 17.8978H18.0326L15.6993 17.0547H15.5715C15.052 17.0547 14.6348 16.6375 14.6348 16.118C14.6348 15.6071 15.052 15.1898 15.5715 15.1898H18.0326L15.6993 14.3467H15.5715C15.052 14.3467 14.6348 13.9294 14.6348 13.4185C14.6348 12.899 15.052 12.4818 15.5715 12.4818H18.0156L15.6737 11.6387H15.5715C15.052 11.6387 14.6348 11.2214 14.6348 10.7105C14.6348 10.1995 15.052 9.78224 15.5715 9.78224H18.0326L15.6993 8.93918H15.5715C15.052 8.93918 14.6348 8.52191 14.6348 8.00244C14.6348 7.49149 15.052 7.07422 15.5715 7.07422H23.3039C23.8149 7.07422 24.2322 7.49149 24.2322 8.00244C24.2322 8.52191 23.8149 8.93918 23.3039 8.93918H21.175L23.4657 9.76521C23.5254 9.79076 23.585 9.81631 23.6446 9.85037C23.6531 9.85889 23.6531 9.85889 23.6616 9.85889C23.9937 9.99514 24.2322 10.3273 24.2322 10.7105C24.2322 11.2214 23.8149 11.6387 23.3039 11.6387Z" fill="#E53133"/>
<path fill-rule="evenodd" clip-rule="evenodd" d="M35.4476 13.1033H35.2262V13.0266L35.4476 13.1033Z" fill="#E53133"/>
<path fill-rule="evenodd" clip-rule="evenodd" d="M52.5986 12.2774V12.3115C52.5049 12.2944 52.4027 12.2774 52.292 12.2774H52.5986Z" fill="#E53133"/>
<path fill-rule="evenodd" clip-rule="evenodd" d="M52.5989 13.0353V13.1034H52.4031L52.5989 13.0353Z" fill="#E53133"/>
</svg>
