<svg width="60" height="60" viewBox="0 0 60 60" fill="none" xmlns="http://www.w3.org/2000/svg">
<path fill-rule="evenodd" clip-rule="evenodd" d="M43.9933 44.3424L42.4178 45.756C41.992 46.0805 41.4896 46.4552 40.9446 46.8043C40.3144 47.2386 39.6672 47.6125 39.0371 47.9114C36.1843 49.4102 32.9227 50.2106 29.6186 50.2106H29.5675C26.1952 50.2021 22.9933 49.3931 20.0383 47.8092L18.1733 46.6936C17.6283 46.3351 17.2111 46.0294 16.8449 45.7228L16.8278 45.7143L16.6575 45.5951L15.2362 44.2922L15.1417 44.1976C11.1989 40.2642 9.03589 35.0695 9.06229 29.5598C9.06995 28.3591 9.18066 27.2265 9.39355 26.0939C9.51277 25.3181 9.66691 24.6198 9.86192 23.9649C9.98966 23.5221 10.16 23.0529 10.3133 22.6109L10.4069 22.3554C10.705 21.5379 11.003 20.8907 11.3437 20.2946C14.3242 14.3676 20.0638 10.2375 26.6806 9.28284C27.3704 9.17298 28.0857 9.11337 28.784 9.10486C29.014 9.07846 29.2533 9.06994 29.5002 9.06994C29.5002 9.06994 29.7131 9.06228 29.7208 9.06228C30.0529 9.06228 30.3424 9.06994 30.6575 9.11337C31.194 9.12189 31.8582 9.1815 32.7354 9.30072C39.3266 10.3064 45.0415 14.4783 48.0383 20.4649C48.4215 21.2399 48.7025 21.8786 48.9069 22.4823C49.1368 22.9848 49.2994 23.5817 49.4434 24.1352C49.6733 24.8846 49.8351 25.6255 49.9211 26.2897C50.0991 27.3108 50.2013 28.4783 50.2098 29.7046C50.1842 35.2739 47.9786 40.4686 43.9933 44.3424ZM29.7293 5.00024C16.1551 4.94063 5.05049 15.9507 5.00025 29.5258C4.93979 43.117 15.9507 54.2301 29.5419 54.2803C43.1085 54.3323 54.2122 43.3299 54.2803 29.7386C54.3229 16.1559 43.3214 5.05134 29.7293 5.00024Z" fill="#E53133"/>
<path fill-rule="evenodd" clip-rule="evenodd" d="M42.4353 42.3761L35.8441 31.5525L47.4937 26.885C47.6555 27.8132 47.7151 28.7678 47.7066 29.7045C47.6981 34.5075 45.8246 39.0038 42.4353 42.3761ZM40.8599 43.8152C40.4426 44.1218 40.0509 44.4369 39.574 44.7435C39.5655 44.7435 39.5569 44.7605 39.5484 44.7775L32.7358 35.3505C33.2382 35.078 33.6981 34.7374 34.1068 34.3457L40.8854 43.7803C40.8769 43.7982 40.8769 43.7982 40.8599 43.8152ZM29.5764 47.724C26.6811 47.707 23.9134 47.0257 21.4183 45.7228L29.5509 36.134L37.709 45.7994C35.2054 47.0853 32.4471 47.724 29.5764 47.724ZM19.5874 44.6498L19.5363 44.5987C19.102 44.3347 18.6847 44.0196 18.3441 43.7309L18.2674 43.6705L25.1141 34.2946C25.5144 34.694 25.9742 35.0354 26.4682 35.2994L19.5874 44.6498ZM16.7099 42.2483C13.3709 38.8343 11.5314 34.3457 11.5485 29.5598C11.557 28.6315 11.6507 27.7118 11.7954 26.7666L11.9147 26.8083L23.428 31.5354L16.7099 42.2483ZM12.2638 24.6547C12.3915 24.1693 12.5619 23.6839 12.7407 23.207C12.7492 23.1976 12.7577 23.1559 12.7747 23.1389L23.8197 26.7836C23.5643 27.2775 23.3854 27.8132 23.2662 28.3676L12.2391 24.7228C12.2468 24.7058 12.2561 24.6794 12.2638 24.6547ZM26.7918 11.7873L25.8814 24.3396V24.3481H25.8721L13.6519 21.2313C16.3173 16.19 21.1884 12.6729 26.7918 11.7873ZM25.31 29.0999C24.7905 29.0999 24.3648 28.6826 24.3648 28.1623C24.3648 27.6352 24.7905 27.2179 25.31 27.2179C25.8295 27.2179 26.2553 27.6352 26.2553 28.1623C26.2553 28.6826 25.8295 29.0999 25.31 29.0999ZM26.9459 32.3274C27.4645 32.3274 27.8903 32.7447 27.8903 33.2718C27.8903 33.7921 27.4645 34.2094 26.9459 34.2094C26.4256 34.2094 25.9998 33.7921 25.9998 33.2718C25.9998 32.7447 26.4256 32.3274 26.9459 32.3274ZM29.636 27.0212C31.0837 27.0212 32.2589 28.1972 32.2589 29.6449C32.2589 31.0841 31.0837 32.2593 29.636 32.2593C28.1969 32.2593 27.0217 31.0841 27.0217 29.6449C27.0217 28.1972 28.1969 27.0212 29.636 27.0212ZM29.636 24.0245C30.164 24.0245 30.5813 24.4418 30.5813 24.9689C30.5813 25.4892 30.164 25.9065 29.636 25.9065C29.1166 25.9065 28.6908 25.4892 28.6908 24.9689C28.6908 24.4418 29.1166 24.0245 29.636 24.0245ZM28.8449 11.5914C28.9122 11.5744 28.9803 11.5659 29.0399 11.5659C29.2188 11.5565 29.3891 11.5565 29.5764 11.5565H29.8319C30.0022 11.5565 30.1981 11.5565 30.5047 11.5914H30.5387L30.4961 23.207C30.2151 23.1644 29.9256 23.1474 29.636 23.1474C29.3465 23.1474 29.0655 23.1644 28.7845 23.207L28.8449 11.5914ZM33.2893 33.2718C33.2893 33.7921 32.872 34.2094 32.3441 34.2094C31.8255 34.2094 31.3997 33.7921 31.3997 33.2718C31.3997 32.7447 31.8255 32.3274 32.3441 32.3274C32.872 32.3274 33.2893 32.7447 33.2893 33.2718ZM34.9414 28.1623C34.9414 28.6826 34.5156 29.0999 33.9961 29.0999C33.4767 29.0999 33.0509 28.6826 33.0509 28.1623C33.0509 27.6352 33.4767 27.2179 33.9961 27.2179C34.5156 27.2179 34.9414 27.6352 34.9414 28.1623ZM45.7054 21.342L33.4426 24.3737L32.6081 11.8214C38.2123 12.7325 43.0569 16.2922 45.7054 21.342ZM46.591 23.3943C46.7869 23.8627 46.941 24.3822 47.0594 24.8241C47.0594 24.842 47.0594 24.842 47.0679 24.8591L36.0059 28.4025C35.9037 27.8481 35.7248 27.3201 35.4864 26.8262L46.5484 23.2657C46.5655 23.3177 46.5655 23.3424 46.591 23.3943ZM49.0776 26.391C48.9925 25.7106 48.8221 25.0123 48.6178 24.3481C48.4815 23.8116 48.3367 23.2751 48.1068 22.7633C47.8769 22.1084 47.5873 21.4698 47.2808 20.8473C44.4706 15.2362 39.0545 11.1231 32.6251 10.1429C31.9353 10.0501 31.237 9.97343 30.5557 9.9564C30.2747 9.92148 30.0107 9.91382 29.7297 9.91382C29.4231 9.92148 29.1336 9.91382 28.8526 9.9564C28.1628 9.96491 27.4645 10.0245 26.8003 10.1267C20.3623 11.0541 14.9037 15.117 12.085 20.7204C11.7273 21.342 11.4548 21.9722 11.2078 22.6364C11.029 23.1474 10.8331 23.6839 10.6799 24.2119C10.484 24.8676 10.3401 25.5488 10.2285 26.2463C10.0241 27.338 9.92196 28.4272 9.91429 29.5598C9.88789 35.0431 12.1446 40.0078 15.7468 43.5938L15.8149 43.6619L17.237 44.9649L17.2966 44.9904C17.7139 45.3481 18.1738 45.6717 18.6166 45.9612L20.439 47.0597C23.1555 48.5159 26.2467 49.3505 29.5679 49.359C32.8465 49.3675 35.9462 48.5756 38.6713 47.1449C39.3015 46.8469 39.9155 46.4807 40.4852 46.0889C40.9621 45.7824 41.4134 45.4503 41.8485 45.1173L43.3976 43.7309C47.0423 40.1875 49.3331 35.2151 49.3586 29.7131C49.3501 28.5881 49.265 27.4734 49.0776 26.391Z" fill="#E53133"/>
</svg>
